<svg version="1.0" preserveAspectRatio="xMidYMid meet" viewBox="75 125.24999699400001 222 97.49999766" zoomAndPan="magnify" xmlns:xlink="http://www.w3.org/1999/xlink" xmlns="http://www.w3.org/2000/svg" style="max-height: 500px" width="222" height="97.49999766"><defs><g/></defs><rect fill-opacity="1" height="449.999989" y="-37.499999" fill="#ffffff" width="450" x="-37.5"/><rect fill-opacity="1" height="449.999989" y="-37.499999" fill="#59738d" width="450" x="-37.5"/><g fill-opacity="1" fill="#ffffff"><g transform="translate(89.249998, 175.797557)"><g><path d="M 1.5 -35 L 8.203125 -35 C 8.535156 -35 8.769531 -34.78125 8.90625 -34.34375 L 17 -7.453125 C 17.03125 -7.210938 17.164062 -7.09375 17.40625 -7.09375 L 17.65625 -7.09375 C 17.851562 -7.09375 17.984375 -7.210938 18.046875 -7.453125 L 26.15625 -32.09375 C 26.519531 -33.226562 27 -33.992188 27.59375 -34.390625 C 28.195312 -34.796875 28.945312 -35 29.84375 -35 L 34.796875 -35 C 35.898438 -35 36.75 -34.78125 37.34375 -34.34375 C 37.945312 -33.914062 38.414062 -33.164062 38.75 -32.09375 L 47.046875 -7.453125 C 47.117188 -7.210938 47.253906 -7.09375 47.453125 -7.09375 L 47.75 -7.09375 C 47.945312 -7.09375 48.082031 -7.210938 48.15625 -7.453125 L 56.046875 -34.34375 C 56.117188 -34.613281 56.226562 -34.789062 56.375 -34.875 C 56.519531 -34.957031 56.675781 -35 56.84375 -35 L 63.59375 -35 C 63.863281 -35 64.023438 -34.878906 64.078125 -34.640625 C 64.128906 -34.410156 64.101562 -34.144531 64 -33.84375 L 54.40625 -3.796875 C 53.9375 -2.296875 53.414062 -1.285156 52.84375 -0.765625 C 52.28125 -0.253906 51.515625 0 50.546875 0 L 44.703125 0 C 43.734375 0 42.972656 -0.265625 42.421875 -0.796875 C 41.867188 -1.328125 41.34375 -2.328125 40.84375 -3.796875 L 33 -27.546875 C 32.96875 -27.785156 32.832031 -27.90625 32.59375 -27.90625 L 32.40625 -27.90625 C 32.164062 -27.90625 32.03125 -27.785156 32 -27.546875 L 24.046875 -3.796875 C 23.546875 -2.328125 23.019531 -1.328125 22.46875 -0.796875 C 21.925781 -0.265625 21.171875 0 20.203125 0 L 14.5 0 C 13.363281 0 12.492188 -0.25 11.890625 -0.75 C 11.296875 -1.25 10.765625 -2.265625 10.296875 -3.796875 L 1.09375 -33.84375 C 1 -34.175781 0.972656 -34.453125 1.015625 -34.671875 C 1.066406 -34.890625 1.226562 -35 1.5 -35 Z M 1.5 -35"/></g></g></g><g fill-opacity="1" fill="#ffffff"><g transform="translate(154.389913, 175.797557)"><g><path d="M 16.90625 -35 L 38.90625 -35 C 39.664062 -35 40.046875 -34.632812 40.046875 -33.90625 L 40.046875 -29.15625 C 40.046875 -28.414062 39.664062 -28.046875 38.90625 -28.046875 L 17.046875 -28.046875 C 15.316406 -28.046875 13.96875 -27.84375 13 -27.4375 C 12.03125 -27.039062 11.351562 -26.351562 10.96875 -25.375 C 10.59375 -24.394531 10.40625 -23.019531 10.40625 -21.25 L 10.40625 -20.75 L 38.65625 -20.75 C 39.382812 -20.75 39.75 -20.382812 39.75 -19.65625 L 39.75 -15.703125 C 39.75 -14.960938 39.382812 -14.59375 38.65625 -14.59375 L 10.40625 -14.59375 L 10.40625 -13.75 C 10.40625 -12.019531 10.59375 -10.65625 10.96875 -9.65625 C 11.351562 -8.65625 12.03125 -7.953125 13 -7.546875 C 13.96875 -7.148438 15.316406 -6.953125 17.046875 -6.953125 L 38.90625 -6.953125 C 39.664062 -6.953125 40.046875 -6.582031 40.046875 -5.84375 L 40.046875 -1.09375 C 40.046875 -0.363281 39.664062 0 38.90625 0 L 16.90625 0 C 13.53125 0 10.816406 -0.429688 8.765625 -1.296875 C 6.722656 -2.160156 5.234375 -3.5625 4.296875 -5.5 C 3.367188 -7.4375 2.90625 -10.003906 2.90625 -13.203125 L 2.90625 -21.796875 C 2.90625 -24.992188 3.367188 -27.5625 4.296875 -29.5 C 5.234375 -31.4375 6.722656 -32.835938 8.765625 -33.703125 C 10.816406 -34.566406 13.53125 -35 16.90625 -35 Z M 16.90625 -35"/></g></g></g><g fill-opacity="1" fill="#ffffff"><g transform="translate(196.883334, 175.797557)"><g><path d="M 4.796875 -35 L 31.65625 -35 C 35.488281 -35 38.238281 -34.125 39.90625 -32.375 C 41.570312 -30.625 42.40625 -28.066406 42.40625 -24.703125 L 42.40625 -21.84375 C 42.40625 -19.007812 41.820312 -16.75 40.65625 -15.0625 C 39.488281 -13.382812 37.585938 -12.3125 34.953125 -11.84375 L 43.5 -1.25 C 43.664062 -1.082031 43.710938 -0.832031 43.640625 -0.5 C 43.578125 -0.164062 43.3125 0 42.84375 0 L 36.40625 0 C 35.96875 0 35.664062 -0.046875 35.5 -0.140625 C 35.332031 -0.242188 35.164062 -0.414062 35 -0.65625 L 27.09375 -11.046875 L 10.953125 -11.046875 L 10.953125 -1.09375 C 10.953125 -0.363281 10.582031 0 9.84375 0 L 4.453125 0 C 3.679688 0 3.296875 -0.363281 3.296875 -1.09375 L 3.296875 -33.5 C 3.296875 -34.5 3.796875 -35 4.796875 -35 Z M 10.953125 -27.546875 L 10.953125 -17.15625 L 30.09375 -17.15625 C 31.800781 -17.15625 33.003906 -17.519531 33.703125 -18.25 C 34.398438 -18.976562 34.75 -20.09375 34.75 -21.59375 L 34.75 -23.703125 C 34.75 -25.203125 34.398438 -26.316406 33.703125 -27.046875 C 33.003906 -27.785156 31.800781 -28.15625 30.09375 -28.15625 L 11.59375 -28.15625 C 11.164062 -28.15625 10.953125 -27.953125 10.953125 -27.546875 Z M 10.953125 -27.546875"/></g></g></g><g fill-opacity="1" fill="#ffffff"><g transform="translate(242.126334, 175.797557)"><g><path d="M 2.296875 -35 L 41.34375 -35 C 42.113281 -35 42.5 -34.632812 42.5 -33.90625 L 42.5 -29 C 42.5 -28.226562 42.113281 -27.84375 41.34375 -27.84375 L 25.65625 -27.84375 L 25.65625 -1.09375 C 25.65625 -0.363281 25.285156 0 24.546875 0 L 19.09375 0 C 18.363281 0 18 -0.363281 18 -1.09375 L 18 -27.84375 L 2.296875 -27.84375 C 1.535156 -27.84375 1.15625 -28.226562 1.15625 -29 L 1.15625 -33.90625 C 1.15625 -34.632812 1.535156 -35 2.296875 -35 Z M 2.296875 -35"/></g></g></g><g fill-opacity="1" fill="#ffffff"><g transform="translate(97.279678, 206.497544)"><g><path d="M 6.078125 -12.59375 L 14.203125 -12.59375 C 14.460938 -12.59375 14.59375 -12.460938 14.59375 -12.203125 L 14.59375 -10.4375 C 14.59375 -10.164062 14.460938 -10.03125 14.203125 -10.03125 L 6.1875 -10.03125 C 5.582031 -10.03125 5.101562 -9.957031 4.75 -9.8125 C 4.40625 -9.664062 4.160156 -9.414062 4.015625 -9.0625 C 3.867188 -8.707031 3.796875 -8.210938 3.796875 -7.578125 L 3.796875 -5.015625 C 3.796875 -4.378906 3.867188 -3.878906 4.015625 -3.515625 C 4.160156 -3.160156 4.40625 -2.910156 4.75 -2.765625 C 5.101562 -2.628906 5.582031 -2.5625 6.1875 -2.5625 L 14.203125 -2.5625 C 14.460938 -2.5625 14.59375 -2.425781 14.59375 -2.15625 L 14.59375 -0.390625 C 14.59375 -0.128906 14.460938 0 14.203125 0 L 6.078125 0 C 4.867188 0 3.894531 -0.15625 3.15625 -0.46875 C 2.414062 -0.78125 1.878906 -1.285156 1.546875 -1.984375 C 1.210938 -2.679688 1.046875 -3.601562 1.046875 -4.75 L 1.046875 -7.84375 C 1.046875 -9 1.210938 -9.921875 1.546875 -10.609375 C 1.878906 -11.304688 2.414062 -11.8125 3.15625 -12.125 C 3.894531 -12.4375 4.867188 -12.59375 6.078125 -12.59375 Z M 6.078125 -12.59375"/></g></g></g><g fill-opacity="1" fill="#ffffff"><g transform="translate(112.61563, 206.497544)"><g><path d="M 6.078125 -12.59375 L 11.640625 -12.59375 C 12.867188 -12.59375 13.851562 -12.4375 14.59375 -12.125 C 15.332031 -11.8125 15.863281 -11.304688 16.1875 -10.609375 C 16.519531 -9.921875 16.6875 -9 16.6875 -7.84375 L 16.6875 -4.75 C 16.6875 -3.601562 16.519531 -2.679688 16.1875 -1.984375 C 15.863281 -1.285156 15.332031 -0.78125 14.59375 -0.46875 C 13.851562 -0.15625 12.867188 0 11.640625 0 L 6.078125 0 C 4.867188 0 3.894531 -0.15625 3.15625 -0.46875 C 2.414062 -0.78125 1.878906 -1.285156 1.546875 -1.984375 C 1.210938 -2.679688 1.046875 -3.601562 1.046875 -4.75 L 1.046875 -7.84375 C 1.046875 -9 1.210938 -9.921875 1.546875 -10.609375 C 1.878906 -11.304688 2.414062 -11.8125 3.15625 -12.125 C 3.894531 -12.4375 4.867188 -12.59375 6.078125 -12.59375 Z M 3.796875 -7.65625 L 3.796875 -4.953125 C 3.796875 -4.328125 3.867188 -3.832031 4.015625 -3.46875 C 4.160156 -3.113281 4.40625 -2.863281 4.75 -2.71875 C 5.101562 -2.570312 5.582031 -2.5 6.1875 -2.5 L 11.53125 -2.5 C 12.15625 -2.5 12.640625 -2.570312 12.984375 -2.71875 C 13.328125 -2.863281 13.570312 -3.113281 13.71875 -3.46875 C 13.863281 -3.832031 13.9375 -4.328125 13.9375 -4.953125 L 13.9375 -7.65625 C 13.9375 -8.289062 13.863281 -8.785156 13.71875 -9.140625 C 13.570312 -9.492188 13.328125 -9.738281 12.984375 -9.875 C 12.640625 -10.019531 12.15625 -10.09375 11.53125 -10.09375 L 6.1875 -10.09375 C 5.582031 -10.09375 5.101562 -10.019531 4.75 -9.875 C 4.40625 -9.738281 4.160156 -9.492188 4.015625 -9.140625 C 3.867188 -8.785156 3.796875 -8.289062 3.796875 -7.65625 Z M 3.796875 -7.65625"/></g></g></g><g fill-opacity="1" fill="#ffffff"><g transform="translate(130.345571, 206.497544)"><g><path d="M 2.8125 -12.59375 L 4.390625 -12.59375 C 4.773438 -12.59375 5.078125 -12.566406 5.296875 -12.515625 C 5.523438 -12.472656 5.722656 -12.375 5.890625 -12.21875 C 6.054688 -12.070312 6.253906 -11.84375 6.484375 -11.53125 L 13.171875 -2.75 C 13.222656 -2.664062 13.300781 -2.625 13.40625 -2.625 L 13.578125 -2.625 C 13.671875 -2.625 13.71875 -2.6875 13.71875 -2.8125 L 13.71875 -12.203125 C 13.71875 -12.460938 13.847656 -12.59375 14.109375 -12.59375 L 16 -12.59375 C 16.257812 -12.59375 16.390625 -12.460938 16.390625 -12.203125 L 16.390625 -1.875 C 16.390625 -1.144531 16.257812 -0.648438 16 -0.390625 C 15.738281 -0.128906 15.332031 0 14.78125 0 L 13.234375 0 C 12.867188 0 12.578125 -0.0195312 12.359375 -0.0625 C 12.140625 -0.101562 11.941406 -0.203125 11.765625 -0.359375 C 11.585938 -0.515625 11.378906 -0.75 11.140625 -1.0625 L 4.421875 -9.84375 C 4.347656 -9.925781 4.269531 -9.96875 4.1875 -9.96875 L 4.03125 -9.96875 C 3.9375 -9.96875 3.890625 -9.910156 3.890625 -9.796875 L 3.890625 -0.390625 C 3.890625 -0.128906 3.753906 0 3.484375 0 L 1.609375 0 C 1.328125 0 1.1875 -0.128906 1.1875 -0.390625 L 1.1875 -10.734375 C 1.1875 -11.460938 1.316406 -11.953125 1.578125 -12.203125 C 1.847656 -12.460938 2.257812 -12.59375 2.8125 -12.59375 Z M 2.8125 -12.59375"/></g></g></g><g fill-opacity="1" fill="#ffffff"><g transform="translate(147.949513, 206.497544)"><g><path d="M 4.15625 -12.59375 L 13.703125 -12.59375 C 13.960938 -12.59375 14.09375 -12.460938 14.09375 -12.203125 L 14.09375 -10.5 C 14.09375 -10.226562 13.960938 -10.09375 13.703125 -10.09375 L 4.6875 -10.09375 C 4.34375 -10.09375 4.09375 -10.003906 3.9375 -9.828125 C 3.789062 -9.648438 3.71875 -9.40625 3.71875 -9.09375 L 3.71875 -8.484375 C 3.71875 -7.804688 4.03125 -7.46875 4.65625 -7.46875 L 11.40625 -7.46875 C 12.4375 -7.46875 13.21875 -7.203125 13.75 -6.671875 C 14.289062 -6.140625 14.5625 -5.375 14.5625 -4.375 L 14.5625 -2.9375 C 14.5625 -2.0625 14.300781 -1.351562 13.78125 -0.8125 C 13.269531 -0.269531 12.46875 0 11.375 0 L 1.40625 0 C 1.125 0 0.984375 -0.128906 0.984375 -0.390625 L 0.984375 -2.109375 C 0.984375 -2.367188 1.125 -2.5 1.40625 -2.5 L 10.859375 -2.5 C 11.203125 -2.5 11.445312 -2.585938 11.59375 -2.765625 C 11.738281 -2.953125 11.8125 -3.203125 11.8125 -3.515625 L 11.8125 -4.25 C 11.8125 -4.914062 11.5 -5.25 10.875 -5.25 L 4.125 -5.25 C 3.09375 -5.25 2.304688 -5.519531 1.765625 -6.0625 C 1.234375 -6.601562 0.96875 -7.367188 0.96875 -8.359375 L 0.96875 -9.671875 C 0.96875 -10.546875 1.222656 -11.25 1.734375 -11.78125 C 2.253906 -12.320312 3.0625 -12.59375 4.15625 -12.59375 Z M 4.15625 -12.59375"/></g></g></g><g fill-opacity="1" fill="#ffffff"><g transform="translate(163.375461, 206.497544)"><g><path d="M 1.5625 -12.59375 L 3.515625 -12.59375 C 3.773438 -12.59375 3.90625 -12.460938 3.90625 -12.203125 L 3.90625 -5.015625 C 3.90625 -4.378906 3.976562 -3.878906 4.125 -3.515625 C 4.269531 -3.160156 4.515625 -2.910156 4.859375 -2.765625 C 5.203125 -2.628906 5.679688 -2.5625 6.296875 -2.5625 L 11.28125 -2.5625 C 11.90625 -2.5625 12.390625 -2.628906 12.734375 -2.765625 C 13.078125 -2.910156 13.316406 -3.160156 13.453125 -3.515625 C 13.585938 -3.878906 13.65625 -4.378906 13.65625 -5.015625 L 13.65625 -12.203125 C 13.65625 -12.460938 13.789062 -12.59375 14.0625 -12.59375 L 16.015625 -12.59375 C 16.285156 -12.59375 16.421875 -12.460938 16.421875 -12.203125 L 16.421875 -4.75 C 16.421875 -3.601562 16.253906 -2.679688 15.921875 -1.984375 C 15.585938 -1.285156 15.050781 -0.78125 14.3125 -0.46875 C 13.582031 -0.15625 12.601562 0 11.375 0 L 6.1875 0 C 4.976562 0 4.003906 -0.15625 3.265625 -0.46875 C 2.523438 -0.78125 1.988281 -1.285156 1.65625 -1.984375 C 1.320312 -2.679688 1.15625 -3.601562 1.15625 -4.75 L 1.15625 -12.203125 C 1.15625 -12.460938 1.289062 -12.59375 1.5625 -12.59375 Z M 1.5625 -12.59375"/></g></g></g><g fill-opacity="1" fill="#ffffff"><g transform="translate(180.961412, 206.497544)"><g><path d="M 1.5625 -12.59375 L 3.515625 -12.59375 C 3.773438 -12.59375 3.90625 -12.460938 3.90625 -12.203125 L 3.90625 -5.015625 C 3.90625 -4.378906 3.976562 -3.878906 4.125 -3.515625 C 4.269531 -3.160156 4.515625 -2.910156 4.859375 -2.765625 C 5.203125 -2.628906 5.679688 -2.5625 6.296875 -2.5625 L 13.59375 -2.5625 C 13.851562 -2.5625 13.984375 -2.425781 13.984375 -2.15625 L 13.984375 -0.390625 C 13.984375 -0.128906 13.851562 0 13.59375 0 L 6.1875 0 C 4.976562 0 4.003906 -0.15625 3.265625 -0.46875 C 2.523438 -0.78125 1.988281 -1.285156 1.65625 -1.984375 C 1.320312 -2.679688 1.15625 -3.601562 1.15625 -4.75 L 1.15625 -12.203125 C 1.15625 -12.460938 1.289062 -12.59375 1.5625 -12.59375 Z M 1.5625 -12.59375"/></g></g></g><g fill-opacity="1" fill="#ffffff"><g transform="translate(195.379365, 206.497544)"><g><path d="M 0.828125 -12.59375 L 14.890625 -12.59375 C 15.160156 -12.59375 15.296875 -12.460938 15.296875 -12.203125 L 15.296875 -10.4375 C 15.296875 -10.164062 15.160156 -10.03125 14.890625 -10.03125 L 9.234375 -10.03125 L 9.234375 -0.390625 C 9.234375 -0.128906 9.101562 0 8.84375 0 L 6.875 0 C 6.613281 0 6.484375 -0.128906 6.484375 -0.390625 L 6.484375 -10.03125 L 0.828125 -10.03125 C 0.546875 -10.03125 0.40625 -10.164062 0.40625 -10.4375 L 0.40625 -12.203125 C 0.40625 -12.460938 0.546875 -12.59375 0.828125 -12.59375 Z M 0.828125 -12.59375"/></g></g></g><g fill-opacity="1" fill="#ffffff"><g transform="translate(211.093315, 206.497544)"><g><path d="M 8.125 -12.59375 L 9.1875 -12.59375 C 9.632812 -12.59375 10.015625 -12.5 10.328125 -12.3125 C 10.640625 -12.132812 10.945312 -11.773438 11.25 -11.234375 L 17.203125 -0.40625 C 17.265625 -0.289062 17.28125 -0.191406 17.25 -0.109375 C 17.21875 -0.0351562 17.128906 0 16.984375 0 L 14.703125 0 C 14.515625 0 14.378906 -0.078125 14.296875 -0.234375 L 13.015625 -2.5625 L 4.546875 -2.5625 L 3.3125 -0.234375 C 3.238281 -0.078125 3.097656 0 2.890625 0 L 0.5625 0 C 0.40625 0 0.3125 -0.0351562 0.28125 -0.109375 C 0.25 -0.191406 0.265625 -0.289062 0.328125 -0.40625 L 6.234375 -11.234375 C 6.523438 -11.773438 6.816406 -12.132812 7.109375 -12.3125 C 7.410156 -12.5 7.75 -12.59375 8.125 -12.59375 Z M 8.515625 -9.921875 L 5.6875 -4.640625 L 11.875 -4.640625 L 9.015625 -9.921875 C 8.972656 -10.003906 8.90625 -10.046875 8.8125 -10.046875 L 8.71875 -10.046875 C 8.632812 -10.046875 8.566406 -10.003906 8.515625 -9.921875 Z M 8.515625 -9.921875"/></g></g></g><g fill-opacity="1" fill="#ffffff"><g transform="translate(228.643264, 206.497544)"><g><path d="M 2.8125 -12.59375 L 4.390625 -12.59375 C 4.773438 -12.59375 5.078125 -12.566406 5.296875 -12.515625 C 5.523438 -12.472656 5.722656 -12.375 5.890625 -12.21875 C 6.054688 -12.070312 6.253906 -11.84375 6.484375 -11.53125 L 13.171875 -2.75 C 13.222656 -2.664062 13.300781 -2.625 13.40625 -2.625 L 13.578125 -2.625 C 13.671875 -2.625 13.71875 -2.6875 13.71875 -2.8125 L 13.71875 -12.203125 C 13.71875 -12.460938 13.847656 -12.59375 14.109375 -12.59375 L 16 -12.59375 C 16.257812 -12.59375 16.390625 -12.460938 16.390625 -12.203125 L 16.390625 -1.875 C 16.390625 -1.144531 16.257812 -0.648438 16 -0.390625 C 15.738281 -0.128906 15.332031 0 14.78125 0 L 13.234375 0 C 12.867188 0 12.578125 -0.0195312 12.359375 -0.0625 C 12.140625 -0.101562 11.941406 -0.203125 11.765625 -0.359375 C 11.585938 -0.515625 11.378906 -0.75 11.140625 -1.0625 L 4.421875 -9.84375 C 4.347656 -9.925781 4.269531 -9.96875 4.1875 -9.96875 L 4.03125 -9.96875 C 3.9375 -9.96875 3.890625 -9.910156 3.890625 -9.796875 L 3.890625 -0.390625 C 3.890625 -0.128906 3.753906 0 3.484375 0 L 1.609375 0 C 1.328125 0 1.1875 -0.128906 1.1875 -0.390625 L 1.1875 -10.734375 C 1.1875 -11.460938 1.316406 -11.953125 1.578125 -12.203125 C 1.847656 -12.460938 2.257812 -12.59375 2.8125 -12.59375 Z M 2.8125 -12.59375"/></g></g></g><g fill-opacity="1" fill="#ffffff"><g transform="translate(246.247206, 206.497544)"><g><path d="M 6.078125 -12.59375 L 14.203125 -12.59375 C 14.460938 -12.59375 14.59375 -12.460938 14.59375 -12.203125 L 14.59375 -10.4375 C 14.59375 -10.164062 14.460938 -10.03125 14.203125 -10.03125 L 6.1875 -10.03125 C 5.582031 -10.03125 5.101562 -9.957031 4.75 -9.8125 C 4.40625 -9.664062 4.160156 -9.414062 4.015625 -9.0625 C 3.867188 -8.707031 3.796875 -8.210938 3.796875 -7.578125 L 3.796875 -5.015625 C 3.796875 -4.378906 3.867188 -3.878906 4.015625 -3.515625 C 4.160156 -3.160156 4.40625 -2.910156 4.75 -2.765625 C 5.101562 -2.628906 5.582031 -2.5625 6.1875 -2.5625 L 14.203125 -2.5625 C 14.460938 -2.5625 14.59375 -2.425781 14.59375 -2.15625 L 14.59375 -0.390625 C 14.59375 -0.128906 14.460938 0 14.203125 0 L 6.078125 0 C 4.867188 0 3.894531 -0.15625 3.15625 -0.46875 C 2.414062 -0.78125 1.878906 -1.285156 1.546875 -1.984375 C 1.210938 -2.679688 1.046875 -3.601562 1.046875 -4.75 L 1.046875 -7.84375 C 1.046875 -9 1.210938 -9.921875 1.546875 -10.609375 C 1.878906 -11.304688 2.414062 -11.8125 3.15625 -12.125 C 3.894531 -12.4375 4.867188 -12.59375 6.078125 -12.59375 Z M 6.078125 -12.59375"/></g></g></g><g fill-opacity="1" fill="#ffffff"><g transform="translate(261.583157, 206.497544)"><g><path d="M 0.4375 -12.59375 L 2.84375 -12.59375 C 3.03125 -12.59375 3.175781 -12.523438 3.28125 -12.390625 L 8.078125 -5.890625 L 12.921875 -12.390625 C 13.015625 -12.523438 13.160156 -12.59375 13.359375 -12.59375 L 15.71875 -12.59375 C 15.8125 -12.59375 15.875 -12.550781 15.90625 -12.46875 C 15.945312 -12.394531 15.9375 -12.316406 15.875 -12.234375 L 9.40625 -3.859375 L 9.40625 -0.390625 C 9.40625 -0.128906 9.273438 0 9.015625 0 L 7.078125 0 C 6.796875 0 6.65625 -0.128906 6.65625 -0.390625 L 6.65625 -3.859375 L 0.265625 -12.234375 C 0.210938 -12.316406 0.195312 -12.394531 0.21875 -12.46875 C 0.25 -12.550781 0.320312 -12.59375 0.4375 -12.59375 Z M 0.4375 -12.59375"/></g></g></g></svg>