<svg width="60" height="60" viewBox="0 0 60 60" fill="none" xmlns="http://www.w3.org/2000/svg">
<rect width="60" height="60" rx="30" fill="#673AB7"/>
<path d="M9.912 42V19.6H19.096C20.7387 19.6 22.2213 19.8773 23.544 20.432C24.888 20.9653 26.04 21.7333 27 22.736C27.9813 23.7173 28.728 24.8907 29.24 26.256C29.752 27.6213 30.008 29.136 30.008 30.8C30.008 32.4427 29.752 33.9573 29.24 35.344C28.728 36.7093 27.992 37.8933 27.032 38.896C26.072 39.8773 24.92 40.6453 23.576 41.2C22.232 41.7333 20.7387 42 19.096 42H9.912ZM14.712 38.512L14.2 37.68H18.936C19.896 37.68 20.76 37.52 21.528 37.2C22.296 36.8587 22.9467 36.4 23.48 35.824C24.0347 35.2267 24.4507 34.5013 24.728 33.648C25.0053 32.7947 25.144 31.8453 25.144 30.8C25.144 29.7547 25.0053 28.816 24.728 27.984C24.4507 27.1307 24.0347 26.4053 23.48 25.808C22.9467 25.2107 22.296 24.752 21.528 24.432C20.76 24.0907 19.896 23.92 18.936 23.92H14.104L14.712 23.152V38.512ZM34.9895 42V19.6H44.4935C45.8162 19.6 47.0108 19.92 48.0775 20.56C49.1655 21.1787 50.0188 22.032 50.6375 23.12C51.2775 24.208 51.5975 25.4347 51.5975 26.8C51.5975 28.1867 51.2775 29.4347 50.6375 30.544C50.0188 31.6533 49.1655 32.5387 48.0775 33.2C47.0108 33.84 45.8162 34.16 44.4935 34.16H39.7895V42H34.9895ZM39.7255 29.84H43.9495C44.4615 29.84 44.9202 29.712 45.3255 29.456C45.7308 29.1787 46.0508 28.816 46.2855 28.368C46.5415 27.92 46.6695 27.408 46.6695 26.832C46.6695 26.256 46.5415 25.7547 46.2855 25.328C46.0508 24.88 45.7308 24.5387 45.3255 24.304C44.9202 24.048 44.4615 23.92 43.9495 23.92H39.7255V29.84Z" fill="white"/>
</svg>
