<svg width="60" height="60" viewBox="0 0 60 60" fill="none" xmlns="http://www.w3.org/2000/svg">
<rect width="60" height="60" rx="30" fill="#673AB7"/>
<path d="M7.912 42V19.6H12.2L24.584 36.336H23.688C23.6027 35.6747 23.528 35.0347 23.464 34.416C23.4 33.776 23.336 33.136 23.272 32.496C23.2293 31.8347 23.1867 31.1627 23.144 30.48C23.1227 29.776 23.1013 29.04 23.08 28.272C23.0587 27.4827 23.048 26.6293 23.048 25.712V19.6H27.752V42H23.4L10.76 25.104L11.976 25.136C12.0827 26.2453 12.168 27.1947 12.232 27.984C12.3173 28.752 12.3813 29.424 12.424 30C12.4667 30.576 12.4987 31.0773 12.52 31.504C12.5627 31.9307 12.584 32.336 12.584 32.72C12.6053 33.104 12.616 33.5093 12.616 33.936V42H7.912ZM34.2082 42V19.6H44.1283C45.5149 19.6 46.7736 19.92 47.9043 20.56C49.0349 21.1787 49.9203 22.0213 50.5603 23.088C51.2216 24.1547 51.5522 25.3707 51.5522 26.736C51.5522 28.08 51.2216 29.3067 50.5603 30.416C49.9203 31.504 49.0349 32.368 47.9043 33.008C46.7736 33.648 45.5149 33.968 44.1283 33.968H38.8482V42H34.2082ZM46.9123 42L41.2162 31.888L46.1442 31.088L52.4803 42.032L46.9123 42ZM38.8482 30.064H43.9043C44.4803 30.064 44.9816 29.936 45.4082 29.68C45.8562 29.4027 46.1976 29.0293 46.4323 28.56C46.6669 28.0693 46.7843 27.5253 46.7843 26.928C46.7843 26.288 46.6456 25.7333 46.3682 25.264C46.0909 24.7947 45.6856 24.432 45.1523 24.176C44.6189 23.8987 44.0003 23.76 43.2963 23.76H38.8482V30.064Z" fill="white"/>
</svg>
