<svg width="254" height="106" viewBox="0 0 254 106" fill="none" xmlns="http://www.w3.org/2000/svg">
<path d="M13.44 60L0.66 18H9.9L16.74 41.46C17.02 42.3 17.26 43.22 17.46 44.22C17.7 45.18 17.88 46.12 18 47.04C18.16 47.92 18.28 48.76 18.36 49.56C18.48 50.32 18.58 50.96 18.66 51.48L17.22 51.42C17.58 49.74 17.88 48.34 18.12 47.22C18.36 46.06 18.58 45.04 18.78 44.16C19.02 43.24 19.3 42.32 19.62 41.4L26.22 24.06H33.66L40.14 41.4C40.62 42.6 41 43.76 41.28 44.88C41.6 45.96 41.86 47.02 42.06 48.06C42.26 49.06 42.46 50.08 42.66 51.12L41.34 51.36C41.46 50.52 41.54 49.8 41.58 49.2C41.66 48.56 41.72 47.98 41.76 47.46C41.84 46.94 41.92 46.42 42 45.9C42.08 45.34 42.2 44.7 42.36 43.98C42.52 43.22 42.76 42.34 43.08 41.34L49.86 18H58.98L46.08 60H39.42L29.04 35.16L30 35.28L20.34 60H13.44Z" fill="#0E3A78"/>
<path d="M51.88 91.6C48.8 91.6 45.96 91.08 43.36 90.04C40.8 88.96 38.56 87.46 36.64 85.54C34.76 83.58 33.3 81.28 32.26 78.64C31.22 75.96 30.7 73.04 30.7 69.88C30.7 66.8 31.24 63.96 32.32 61.36C33.4 58.72 34.92 56.44 36.88 54.52C38.84 52.56 41.14 51.04 43.78 49.96C46.42 48.88 49.28 48.34 52.36 48.34C54.36 48.34 56.32 48.62 58.24 49.18C60.2 49.7 61.98 50.48 63.58 51.52C65.22 52.56 66.62 53.8 67.78 55.24L62.14 61.48C61.18 60.52 60.18 59.7 59.14 59.02C58.14 58.3 57.06 57.76 55.9 57.4C54.78 57 53.58 56.8 52.3 56.8C50.58 56.8 48.96 57.12 47.44 57.76C45.96 58.4 44.66 59.3 43.54 60.46C42.42 61.58 41.52 62.96 40.84 64.6C40.2 66.2 39.88 67.98 39.88 69.94C39.88 71.94 40.2 73.76 40.84 75.4C41.48 77 42.38 78.38 43.54 79.54C44.7 80.66 46.08 81.54 47.68 82.18C49.32 82.78 51.12 83.08 53.08 83.08C54.36 83.08 55.6 82.9 56.8 82.54C58 82.18 59.1 81.68 60.1 81.04C61.14 80.4 62.06 79.66 62.86 78.82L67.24 85.84C66.28 86.92 64.98 87.9 63.34 88.78C61.74 89.66 59.94 90.36 57.94 90.88C55.94 91.36 53.92 91.6 51.88 91.6Z" fill="#0E3A78"/>
<path d="M75.376 45L70.264 28.2H73.96L76.696 37.584C76.808 37.92 76.904 38.288 76.984 38.688C77.08 39.072 77.152 39.448 77.2 39.816C77.264 40.168 77.312 40.504 77.344 40.824C77.392 41.128 77.432 41.384 77.464 41.592L76.888 41.568C77.032 40.896 77.152 40.336 77.248 39.888C77.344 39.424 77.432 39.016 77.512 38.664C77.608 38.296 77.72 37.928 77.848 37.56L80.488 30.624H83.464L86.056 37.56C86.248 38.04 86.4 38.504 86.512 38.952C86.64 39.384 86.744 39.808 86.824 40.224C86.904 40.624 86.984 41.032 87.064 41.448L86.536 41.544C86.584 41.208 86.616 40.92 86.632 40.68C86.664 40.424 86.688 40.192 86.704 39.984C86.736 39.776 86.768 39.568 86.8 39.36C86.832 39.136 86.88 38.88 86.944 38.592C87.008 38.288 87.104 37.936 87.232 37.536L89.944 28.2H93.592L88.432 45H85.768L81.616 35.064L82 35.112L78.136 45H75.376ZM96.0434 45V28.2H107.395V31.368H99.5474V41.832H107.563V45H96.0434ZM97.7234 37.968V34.896H106.243V37.968H97.7234ZM111.278 45V28.2H118.718C119.758 28.2 120.702 28.44 121.55 28.92C122.398 29.384 123.062 30.016 123.542 30.816C124.038 31.616 124.286 32.528 124.286 33.552C124.286 34.56 124.038 35.48 123.542 36.312C123.062 37.128 122.398 37.776 121.55 38.256C120.702 38.736 119.758 38.976 118.718 38.976H114.758V45H111.278ZM120.806 45L116.534 37.416L120.23 36.816L124.982 45.024L120.806 45ZM114.758 36.048H118.55C118.982 36.048 119.358 35.952 119.678 35.76C120.014 35.552 120.27 35.272 120.446 34.92C120.622 34.552 120.71 34.144 120.71 33.696C120.71 33.216 120.606 32.8 120.398 32.448C120.19 32.096 119.886 31.824 119.486 31.632C119.086 31.424 118.622 31.32 118.094 31.32H114.758V36.048ZM131.118 45V31.44H126.222V28.2H139.758V31.44H134.718V45H131.118Z" fill="#0E3A78"/>
<path d="M79.552 75.24C78.32 75.24 77.184 75.032 76.144 74.616C75.12 74.184 74.224 73.584 73.456 72.816C72.704 72.032 72.12 71.112 71.704 70.056C71.288 68.984 71.08 67.816 71.08 66.552C71.08 65.32 71.296 64.184 71.728 63.144C72.16 62.088 72.768 61.176 73.552 60.408C74.336 59.624 75.256 59.016 76.312 58.584C77.368 58.152 78.512 57.936 79.744 57.936C80.544 57.936 81.328 58.048 82.096 58.272C82.88 58.48 83.592 58.792 84.232 59.208C84.888 59.624 85.448 60.12 85.912 60.696L83.656 63.192C83.272 62.808 82.872 62.48 82.456 62.208C82.056 61.92 81.624 61.704 81.16 61.56C80.712 61.4 80.232 61.32 79.72 61.32C79.032 61.32 78.384 61.448 77.776 61.704C77.184 61.96 76.664 62.32 76.216 62.784C75.768 63.232 75.408 63.784 75.136 64.44C74.88 65.08 74.752 65.792 74.752 66.576C74.752 67.376 74.88 68.104 75.136 68.76C75.392 69.4 75.752 69.952 76.216 70.416C76.68 70.864 77.232 71.216 77.872 71.472C78.528 71.712 79.248 71.832 80.032 71.832C80.544 71.832 81.04 71.76 81.52 71.616C82 71.472 82.44 71.272 82.84 71.016C83.256 70.76 83.624 70.464 83.944 70.128L85.696 72.936C85.312 73.368 84.792 73.76 84.136 74.112C83.496 74.464 82.776 74.744 81.976 74.952C81.176 75.144 80.368 75.24 79.552 75.24ZM96.1709 75.24C94.9389 75.24 93.8029 75.024 92.7629 74.592C91.7229 74.16 90.8109 73.56 90.0269 72.792C89.2589 72.008 88.6669 71.088 88.2509 70.032C87.8349 68.96 87.6269 67.8 87.6269 66.552C87.6269 65.288 87.8349 64.136 88.2509 63.096C88.6669 62.04 89.2589 61.12 90.0269 60.336C90.8109 59.552 91.7229 58.944 92.7629 58.512C93.8029 58.08 94.9389 57.864 96.1709 57.864C97.4189 57.864 98.5549 58.08 99.5789 58.512C100.619 58.944 101.523 59.552 102.291 60.336C103.075 61.12 103.675 62.04 104.091 63.096C104.507 64.152 104.715 65.304 104.715 66.552C104.715 67.8 104.507 68.952 104.091 70.008C103.675 71.064 103.075 71.984 102.291 72.768C101.523 73.552 100.619 74.16 99.5789 74.592C98.5549 75.024 97.4189 75.24 96.1709 75.24ZM96.1709 71.832C96.8749 71.832 97.5229 71.704 98.1149 71.448C98.7229 71.192 99.2429 70.824 99.6749 70.344C100.107 69.864 100.443 69.304 100.683 68.664C100.939 68.024 101.067 67.32 101.067 66.552C101.067 65.784 100.939 65.08 100.683 64.44C100.443 63.8 100.107 63.248 99.6749 62.784C99.2429 62.304 98.7229 61.936 98.1149 61.68C97.5229 61.408 96.8749 61.272 96.1709 61.272C95.4669 61.272 94.8189 61.408 94.2269 61.68C93.6349 61.936 93.1149 62.304 92.6669 62.784C92.2189 63.248 91.8749 63.8 91.6349 64.44C91.4109 65.08 91.2989 65.784 91.2989 66.552C91.2989 67.32 91.4109 68.024 91.6349 68.664C91.8749 69.304 92.2189 69.864 92.6669 70.344C93.1149 70.824 93.6349 71.192 94.2269 71.448C94.8189 71.704 95.4669 71.832 96.1709 71.832ZM107.973 75V58.2H111.189L120.477 70.752H119.805C119.741 70.256 119.685 69.776 119.637 69.312C119.589 68.832 119.541 68.352 119.493 67.872C119.461 67.376 119.429 66.872 119.397 66.36C119.381 65.832 119.365 65.28 119.349 64.704C119.333 64.112 119.325 63.472 119.325 62.784V58.2H122.853V75H119.589L110.109 62.328L111.021 62.352C111.101 63.184 111.165 63.896 111.213 64.488C111.277 65.064 111.325 65.568 111.357 66C111.389 66.432 111.413 66.808 111.429 67.128C111.461 67.448 111.477 67.752 111.477 68.04C111.493 68.328 111.501 68.632 111.501 68.952V75H107.973ZM132.663 75.24C131.623 75.24 130.671 75.112 129.807 74.856C128.959 74.6 128.199 74.224 127.527 73.728C126.871 73.232 126.279 72.632 125.751 71.928L128.007 69.36C128.791 70.448 129.567 71.192 130.335 71.592C131.119 71.976 131.967 72.168 132.879 72.168C133.375 72.168 133.815 72.104 134.199 71.976C134.599 71.832 134.911 71.632 135.135 71.376C135.359 71.12 135.471 70.816 135.471 70.464C135.471 70.208 135.415 69.976 135.303 69.768C135.191 69.544 135.031 69.352 134.823 69.192C134.615 69.016 134.367 68.864 134.079 68.736C133.791 68.592 133.471 68.472 133.119 68.376C132.767 68.264 132.383 68.176 131.967 68.112C131.071 67.904 130.287 67.656 129.615 67.368C128.943 67.064 128.383 66.696 127.935 66.264C127.487 65.816 127.151 65.312 126.927 64.752C126.719 64.192 126.615 63.56 126.615 62.856C126.615 62.136 126.775 61.472 127.095 60.864C127.415 60.24 127.855 59.704 128.415 59.256C128.991 58.808 129.647 58.464 130.383 58.224C131.135 57.984 131.927 57.864 132.759 57.864C133.783 57.864 134.679 57.984 135.447 58.224C136.215 58.448 136.879 58.776 137.439 59.208C138.015 59.64 138.495 60.168 138.879 60.792L136.599 63C136.263 62.552 135.895 62.176 135.495 61.872C135.111 61.568 134.687 61.344 134.223 61.2C133.775 61.04 133.311 60.96 132.831 60.96C132.303 60.96 131.847 61.032 131.463 61.176C131.079 61.304 130.775 61.496 130.551 61.752C130.343 62.008 130.239 62.32 130.239 62.688C130.239 62.976 130.311 63.232 130.455 63.456C130.599 63.68 130.807 63.88 131.079 64.056C131.351 64.216 131.679 64.36 132.063 64.488C132.447 64.616 132.871 64.728 133.335 64.824C134.215 65 135.007 65.232 135.711 65.52C136.415 65.808 137.015 66.16 137.511 66.576C138.023 66.976 138.415 67.456 138.687 68.016C138.959 68.56 139.095 69.176 139.095 69.864C139.095 71 138.823 71.968 138.279 72.768C137.735 73.568 136.983 74.184 136.023 74.616C135.063 75.032 133.943 75.24 132.663 75.24ZM149.268 75.144C147.908 75.144 146.692 74.864 145.62 74.304C144.564 73.728 143.732 72.944 143.124 71.952C142.516 70.944 142.212 69.808 142.212 68.544V58.176H145.836V68.328C145.836 69 145.988 69.608 146.292 70.152C146.596 70.68 147.004 71.104 147.516 71.424C148.044 71.744 148.628 71.904 149.268 71.904C149.924 71.904 150.516 71.744 151.044 71.424C151.588 71.104 152.012 70.68 152.316 70.152C152.636 69.608 152.796 69 152.796 68.328V58.176H156.3V68.544C156.3 69.808 155.996 70.944 155.388 71.952C154.78 72.944 153.94 73.728 152.868 74.304C151.812 74.864 150.612 75.144 149.268 75.144ZM160.52 75V58.2H164.12V71.76H171.728V75H160.52ZM176.563 75V61.44H171.667V58.2H185.203V61.44H180.163V75H176.563ZM184.989 75L191.565 58.2H194.781L201.333 75H197.637L194.253 65.952C194.157 65.696 194.037 65.368 193.893 64.968C193.765 64.568 193.629 64.144 193.485 63.696C193.341 63.248 193.205 62.824 193.077 62.424C192.949 62.008 192.853 61.664 192.789 61.392L193.437 61.368C193.341 61.736 193.229 62.12 193.101 62.52C192.989 62.904 192.869 63.304 192.741 63.72C192.613 64.12 192.477 64.512 192.333 64.896C192.189 65.28 192.053 65.656 191.925 66.024L188.541 75H184.989ZM188.037 71.472L189.213 68.568H196.917L198.117 71.472H188.037ZM203.692 75V58.2H206.908L216.196 70.752H215.524C215.46 70.256 215.404 69.776 215.356 69.312C215.308 68.832 215.26 68.352 215.212 67.872C215.18 67.376 215.148 66.872 215.116 66.36C215.1 65.832 215.084 65.28 215.068 64.704C215.052 64.112 215.044 63.472 215.044 62.784V58.2H218.572V75H215.308L205.828 62.328L206.74 62.352C206.82 63.184 206.884 63.896 206.932 64.488C206.996 65.064 207.044 65.568 207.076 66C207.108 66.432 207.132 66.808 207.148 67.128C207.18 67.448 207.196 67.752 207.196 68.04C207.212 68.328 207.22 68.632 207.22 68.952V75H203.692ZM230.302 75.24C229.07 75.24 227.934 75.032 226.894 74.616C225.87 74.184 224.974 73.584 224.206 72.816C223.454 72.032 222.87 71.112 222.454 70.056C222.038 68.984 221.83 67.816 221.83 66.552C221.83 65.32 222.046 64.184 222.478 63.144C222.91 62.088 223.518 61.176 224.302 60.408C225.086 59.624 226.006 59.016 227.062 58.584C228.118 58.152 229.262 57.936 230.494 57.936C231.294 57.936 232.078 58.048 232.846 58.272C233.63 58.48 234.342 58.792 234.982 59.208C235.638 59.624 236.198 60.12 236.662 60.696L234.406 63.192C234.022 62.808 233.622 62.48 233.206 62.208C232.806 61.92 232.374 61.704 231.91 61.56C231.462 61.4 230.982 61.32 230.47 61.32C229.782 61.32 229.134 61.448 228.526 61.704C227.934 61.96 227.414 62.32 226.966 62.784C226.518 63.232 226.158 63.784 225.886 64.44C225.63 65.08 225.502 65.792 225.502 66.576C225.502 67.376 225.63 68.104 225.886 68.76C226.142 69.4 226.502 69.952 226.966 70.416C227.43 70.864 227.982 71.216 228.622 71.472C229.278 71.712 229.998 71.832 230.782 71.832C231.294 71.832 231.79 71.76 232.27 71.616C232.75 71.472 233.19 71.272 233.59 71.016C234.006 70.76 234.374 70.464 234.694 70.128L236.446 72.936C236.062 73.368 235.542 73.76 234.886 74.112C234.246 74.464 233.526 74.744 232.726 74.952C231.926 75.144 231.118 75.24 230.302 75.24ZM243.873 75V66.624L244.041 67.8L237.249 58.2H241.401L246.585 65.64L244.953 65.568L249.633 58.2H253.641L247.137 68.064L247.497 66.432V75H243.873Z" fill="#0E3A78"/>
</svg>
