<svg width="133" height="38" viewBox="0 0 133 38" fill="none" xmlns="http://www.w3.org/2000/svg">
<path d="M118.153 29H119.757C119.882 29 119.978 29.0469 120.049 29.1354L123.247 33.4688L126.476 29.1354C126.538 29.0469 126.635 29 126.767 29H128.34C128.403 29 128.445 29.0286 128.465 29.0833C128.491 29.1328 128.486 29.1849 128.445 29.2396L124.132 34.8229V37.1354C124.132 37.3099 124.043 37.3958 123.872 37.3958H122.58C122.392 37.3958 122.299 37.3099 122.299 37.1354V34.8229L118.038 29.2396C118.002 29.1849 117.991 29.1328 118.007 29.0833C118.028 29.0286 118.075 29 118.153 29Z" fill="#0E3A78"/>
<path d="M110.354 29H115.771C115.943 29 116.031 29.0885 116.031 29.2604V30.4375C116.031 30.6198 115.943 30.7083 115.771 30.7083H110.427C110.023 30.7083 109.703 30.7578 109.469 30.8542C109.24 30.9531 109.076 31.1198 108.979 31.3542C108.88 31.5911 108.833 31.9219 108.833 32.3438V34.0521C108.833 34.4766 108.88 34.8099 108.979 35.0521C109.076 35.2891 109.24 35.4557 109.469 35.5521C109.703 35.6432 110.023 35.6875 110.427 35.6875H115.771C115.943 35.6875 116.031 35.7786 116.031 35.9583V37.1354C116.031 37.3099 115.943 37.3958 115.771 37.3958H110.354C109.547 37.3958 108.898 37.2917 108.406 37.0833C107.911 36.875 107.555 36.5391 107.333 36.0729C107.109 35.6094 107 34.9948 107 34.2292V32.1667C107 31.3958 107.109 30.7813 107.333 30.3229C107.555 29.8594 107.911 29.5208 108.406 29.3125C108.898 29.1042 109.547 29 110.354 29Z" fill="#0E3A78"/>
<path d="M96.0833 29H97.1354C97.3906 29 97.5938 29.0182 97.7396 29.0521C97.8906 29.0807 98.0234 29.1458 98.1354 29.25C98.2448 29.349 98.3776 29.5 98.5313 29.7083L102.99 35.5625C103.023 35.6198 103.076 35.6458 103.146 35.6458H103.26C103.323 35.6458 103.354 35.6042 103.354 35.5208V29.2604C103.354 29.0885 103.44 29 103.615 29H104.875C105.047 29 105.135 29.0885 105.135 29.2604V36.1458C105.135 36.6328 105.047 36.9635 104.875 37.1354C104.701 37.3099 104.43 37.3958 104.063 37.3958H103.031C102.786 37.3958 102.594 37.3828 102.448 37.3542C102.302 37.3281 102.169 37.2604 102.052 37.1563C101.932 37.0521 101.794 36.8958 101.635 36.6875L97.1563 30.8333C97.1068 30.7786 97.0547 30.75 97 30.75H96.8958C96.8333 30.75 96.8021 30.7891 96.8021 30.8646V37.1354C96.8021 37.3099 96.7109 37.3958 96.5313 37.3958H95.2813C95.0938 37.3958 95 37.3099 95 37.1354V30.2396C95 29.7552 95.0859 29.4271 95.2604 29.2604C95.4401 29.0885 95.7135 29 96.0833 29Z" fill="#0E3A78"/>
<path d="M87.2396 29H87.9479C88.2448 29 88.5 29.0625 88.7083 29.1875C88.9167 29.3073 89.1198 29.5469 89.3229 29.9063L93.2917 37.125C93.3333 37.2031 93.3438 37.2682 93.3229 37.3229C93.3021 37.3724 93.2422 37.3958 93.1458 37.3958H91.625C91.5 37.3958 91.4089 37.3438 91.3542 37.2396L90.5 35.6875H84.8542L84.0313 37.2396C83.9818 37.3438 83.888 37.3958 83.75 37.3958H82.1979C82.0938 37.3958 82.0313 37.3724 82.0104 37.3229C81.9896 37.2682 82 37.2031 82.0417 37.125L85.9792 29.9063C86.1719 29.5469 86.3672 29.3073 86.5625 29.1875C86.763 29.0625 86.9896 29 87.2396 29ZM87.5 30.7813L85.6146 34.3021H89.7396L87.8333 30.7813C87.8047 30.7266 87.7604 30.6979 87.6979 30.6979H87.6354C87.5781 30.6979 87.5339 30.7266 87.5 30.7813Z" fill="#0E3A78"/>
<path d="M72.2813 29H81.6563C81.8359 29 81.9271 29.0885 81.9271 29.2604V30.4375C81.9271 30.6198 81.8359 30.7083 81.6563 30.7083H77.8854V37.1354C77.8854 37.3099 77.7969 37.3958 77.625 37.3958H76.3125C76.138 37.3958 76.0521 37.3099 76.0521 37.1354V30.7083H72.2813C72.0938 30.7083 72 30.6198 72 30.4375V29.2604C72 29.0885 72.0938 29 72.2813 29Z" fill="#0E3A78"/>
<path d="M63.2708 29H64.5729C64.7448 29 64.8333 29.0885 64.8333 29.2604V34.0521C64.8333 34.4766 64.8802 34.8099 64.9792 35.0521C65.0755 35.2891 65.2396 35.4557 65.4688 35.5521C65.6979 35.6432 66.0156 35.6875 66.4271 35.6875H71.2917C71.4635 35.6875 71.5521 35.7786 71.5521 35.9583V37.1354C71.5521 37.3099 71.4635 37.3958 71.2917 37.3958H66.3542C65.5469 37.3958 64.8984 37.2917 64.4063 37.0833C63.9115 36.875 63.5547 36.5391 63.3333 36.0729C63.1094 35.6094 63 34.9948 63 34.2292V29.2604C63 29.0885 63.0885 29 63.2708 29Z" fill="#0E3A78"/>
<path d="M51.2708 29H52.5729C52.7448 29 52.8333 29.0885 52.8333 29.2604V34.0521C52.8333 34.4766 52.8802 34.8099 52.9792 35.0521C53.0755 35.2891 53.2396 35.4557 53.4688 35.5521C53.6979 35.6432 54.0156 35.6875 54.4271 35.6875H57.75C58.1667 35.6875 58.4896 35.6432 58.7188 35.5521C58.9479 35.4557 59.1068 35.2891 59.1979 35.0521C59.2865 34.8099 59.3333 34.4766 59.3333 34.0521V29.2604C59.3333 29.0885 59.4219 29 59.6042 29H60.9063C61.0859 29 61.1771 29.0885 61.1771 29.2604V34.2292C61.1771 34.9948 61.0651 35.6094 60.8438 36.0729C60.6198 36.5391 60.263 36.875 59.7708 37.0833C59.2839 37.2917 58.6302 37.3958 57.8125 37.3958H54.3542C53.5469 37.3958 52.8984 37.2917 52.4063 37.0833C51.9115 36.875 51.5547 36.5391 51.3333 36.0729C51.1094 35.6094 51 34.9948 51 34.2292V29.2604C51 29.0885 51.0885 29 51.2708 29Z" fill="#0E3A78"/>
<path d="M42.125 29H48.4896C48.6615 29 48.75 29.0885 48.75 29.2604V30.3958C48.75 30.5781 48.6615 30.6667 48.4896 30.6667H42.4792C42.25 30.6667 42.0833 30.7266 41.9792 30.8438C41.8802 30.9635 41.8333 31.125 41.8333 31.3333V31.7396C41.8333 32.1927 42.0417 32.4167 42.4583 32.4167H46.9583C47.6458 32.4167 48.1667 32.5938 48.5208 32.9479C48.8802 33.3021 49.0625 33.8125 49.0625 34.4792V35.4375C49.0625 36.0208 48.888 36.4948 48.5417 36.8542C48.2005 37.2161 47.6667 37.3958 46.9375 37.3958H40.2917C40.1042 37.3958 40.0104 37.3099 40.0104 37.1354V35.9896C40.0104 35.8177 40.1042 35.7292 40.2917 35.7292H46.5938C46.8229 35.7292 46.9844 35.6719 47.0833 35.5521C47.1797 35.4271 47.2292 35.2604 47.2292 35.0521V34.5625C47.2292 34.1198 47.0208 33.8958 46.6042 33.8958H42.1042C41.4167 33.8958 40.8906 33.7161 40.5313 33.3542C40.1771 32.9948 40 32.4844 40 31.8229V30.9479C40 30.3646 40.1693 29.8958 40.5104 29.5417C40.8568 29.1823 41.3958 29 42.125 29Z" fill="#0E3A78"/>
<path d="M29.0833 29H30.1354C30.3906 29 30.5938 29.0182 30.7396 29.0521C30.8906 29.0807 31.0234 29.1458 31.1354 29.25C31.2448 29.349 31.3776 29.5 31.5313 29.7083L35.9896 35.5625C36.0234 35.6198 36.0755 35.6458 36.1458 35.6458H36.2604C36.3229 35.6458 36.3542 35.6042 36.3542 35.5208V29.2604C36.3542 29.0885 36.4401 29 36.6146 29H37.875C38.0469 29 38.1354 29.0885 38.1354 29.2604V36.1458C38.1354 36.6328 38.0469 36.9635 37.875 37.1354C37.7005 37.3099 37.4297 37.3958 37.0625 37.3958H36.0313C35.7865 37.3958 35.5938 37.3828 35.4479 37.3542C35.3021 37.3281 35.1693 37.2604 35.0521 37.1563C34.9323 37.0521 34.7943 36.8958 34.6354 36.6875L30.1563 30.8333C30.1068 30.7786 30.0547 30.75 30 30.75H29.8958C29.8333 30.75 29.8021 30.7891 29.8021 30.8646V37.1354C29.8021 37.3099 29.7109 37.3958 29.5313 37.3958H28.2813C28.0938 37.3958 28 37.3099 28 37.1354V30.2396C28 29.7552 28.0859 29.4271 28.2604 29.2604C28.4401 29.0885 28.7135 29 29.0833 29Z" fill="#0E3A78"/>
<path d="M19.3542 29H23.0625C23.8802 29 24.5365 29.1042 25.0313 29.3125C25.5234 29.5208 25.8776 29.8594 26.0938 30.3229C26.3151 30.7813 26.4271 31.3958 26.4271 32.1667V34.2292C26.4271 34.9948 26.3151 35.6094 26.0938 36.0729C25.8776 36.5391 25.5234 36.875 25.0313 37.0833C24.5365 37.2917 23.8802 37.3958 23.0625 37.3958H19.3542C18.5469 37.3958 17.8984 37.2917 17.4063 37.0833C16.9115 36.875 16.5547 36.5391 16.3333 36.0729C16.1094 35.6094 16 34.9948 16 34.2292V32.1667C16 31.3958 16.1094 30.7813 16.3333 30.3229C16.5547 29.8594 16.9115 29.5208 17.4063 29.3125C17.8984 29.1042 18.5469 29 19.3542 29ZM17.8333 32.2917V34.0938C17.8333 34.5104 17.8802 34.8411 17.9792 35.0833C18.0755 35.3203 18.2396 35.487 18.4688 35.5833C18.7031 35.6823 19.0234 35.7292 19.4271 35.7292H22.9896C23.4063 35.7292 23.7292 35.6823 23.9583 35.5833C24.1875 35.487 24.349 35.3203 24.4479 35.0833C24.5443 34.8411 24.5938 34.5104 24.5938 34.0938V32.2917C24.5938 31.8698 24.5443 31.5391 24.4479 31.3021C24.349 31.0677 24.1875 30.9036 23.9583 30.8125C23.7292 30.7161 23.4063 30.6667 22.9896 30.6667H19.4271C19.0234 30.6667 18.7031 30.7161 18.4688 30.8125C18.2396 30.9036 18.0755 31.0677 17.9792 31.3021C17.8802 31.5391 17.8333 31.8698 17.8333 32.2917Z" fill="#0E3A78"/>
<path d="M8.35417 29H13.7708C13.9427 29 14.0313 29.0885 14.0313 29.2604V30.4375C14.0313 30.6198 13.9427 30.7083 13.7708 30.7083H8.42708C8.02344 30.7083 7.70312 30.7578 7.46875 30.8542C7.23958 30.9531 7.07552 31.1198 6.97917 31.3542C6.88021 31.5911 6.83333 31.9219 6.83333 32.3438V34.0521C6.83333 34.4766 6.88021 34.8099 6.97917 35.0521C7.07552 35.2891 7.23958 35.4557 7.46875 35.5521C7.70312 35.6432 8.02344 35.6875 8.42708 35.6875H13.7708C13.9427 35.6875 14.0313 35.7786 14.0313 35.9583V37.1354C14.0313 37.3099 13.9427 37.3958 13.7708 37.3958H8.35417C7.54688 37.3958 6.89844 37.2917 6.40625 37.0833C5.91146 36.875 5.55469 36.5391 5.33333 36.0729C5.10938 35.6094 5 34.9948 5 34.2292V32.1667C5 31.3958 5.10938 30.7813 5.33333 30.3229C5.55469 29.8594 5.91146 29.5208 6.40625 29.3125C6.89844 29.1042 7.54688 29 8.35417 29Z" fill="#0E3A78"/>
<path d="M105.76 0H131.792C132.305 0 132.562 0.244792 132.562 0.729167V4C132.562 4.51563 132.305 4.77083 131.792 4.77083H121.333V22.6042C121.333 23.0911 121.086 23.3333 120.594 23.3333H116.958C116.471 23.3333 116.229 23.0911 116.229 22.6042V4.77083H105.76C105.253 4.77083 105 4.51563 105 4V0.729167C105 0.244792 105.253 0 105.76 0Z" fill="#0E3A78"/>
<path d="M75 0H92.9063C95.4609 0 97.2943 0.583333 98.4063 1.75C99.5156 2.91667 100.073 4.6224 100.073 6.86458V8.77083C100.073 10.6615 99.6823 12.1667 98.9063 13.2917C98.1276 14.4115 96.8594 15.125 95.1042 15.4375L100.802 22.5C100.911 22.612 100.943 22.7786 100.896 23C100.854 23.224 100.677 23.3333 100.365 23.3333H96.0729C95.7813 23.3333 95.5781 23.3021 95.4688 23.2396C95.3568 23.1719 95.2448 23.0573 95.1354 22.8958L89.8646 15.9688H79.1042V22.6042C79.1042 23.0911 78.8568 23.3333 78.3646 23.3333H74.7708C74.2552 23.3333 74 23.0911 74 22.6042V1C74 0.333333 74.3333 0 75 0ZM79.1042 4.96875V11.8958H91.8646C93.0026 11.8958 93.8047 11.6536 94.2708 11.1667C94.7344 10.6823 94.9688 9.9375 94.9688 8.9375V7.53125C94.9688 6.53125 94.7344 5.78906 94.2708 5.30208C93.8047 4.8099 93.0026 4.5625 91.8646 4.5625H79.5313C79.2448 4.5625 79.1042 4.69792 79.1042 4.96875Z" fill="#0E3A78"/>
<path d="M54.3333 0H69C69.5052 0 69.7604 0.244792 69.7604 0.729167V3.89583C69.7604 4.39063 69.5052 4.63542 69 4.63542H54.4271C53.2734 4.63542 52.375 4.77083 51.7292 5.04167C51.0833 5.30729 50.6302 5.76563 50.375 6.41667C50.125 7.07031 50 7.98698 50 9.16667V9.5H68.8333C69.3177 9.5 69.5625 9.74479 69.5625 10.2292V12.8646C69.5625 13.3594 69.3177 13.6042 68.8333 13.6042H50V14.1667C50 15.3203 50.125 16.2292 50.375 16.8958C50.6302 17.5625 51.0833 18.0313 51.7292 18.3021C52.375 18.5677 53.2734 18.6979 54.4271 18.6979H69C69.5052 18.6979 69.7604 18.9453 69.7604 19.4375V22.6042C69.7604 23.0911 69.5052 23.3333 69 23.3333H54.3333C52.0833 23.3333 50.2734 23.0469 48.9063 22.4688C47.5443 21.8932 46.5521 20.9583 45.9271 19.6667C45.3073 18.375 45 16.6641 45 14.5313V8.80208C45 6.67187 45.3073 4.95833 45.9271 3.66667C46.5521 2.375 47.5443 1.44271 48.9063 0.864583C50.2734 0.289063 52.0833 0 54.3333 0Z" fill="#0E3A78"/>
<path d="M0.336121 0H4.80487C5.02623 0 5.18248 0.145833 5.27362 0.4375L10.6695 18.3646C10.6903 18.526 10.7788 18.6042 10.9403 18.6042H11.107C11.2372 18.6042 11.3257 18.526 11.3674 18.3646L16.7736 1.9375C17.0158 1.18229 17.3361 0.671875 17.732 0.40625C18.133 0.135417 18.633 0 19.232 0H22.534C23.2684 0 23.8361 0.145833 24.232 0.4375C24.633 0.723959 24.9455 1.22396 25.1695 1.9375L30.7007 18.3646C30.7476 18.526 30.8387 18.6042 30.9715 18.6042H31.1695C31.2997 18.6042 31.3908 18.526 31.4403 18.3646L36.7007 0.4375C36.7476 0.257813 36.8205 0.140625 36.9195 0.0833333C37.0158 0.028646 37.12 0 37.232 0H41.732C41.9116 0 42.0184 0.0807293 42.0549 0.239583C42.0887 0.393229 42.0705 0.570313 42.0028 0.770833L35.607 20.8021C35.2945 21.8021 34.9455 22.4766 34.5653 22.8229C34.1903 23.1641 33.6799 23.3333 33.034 23.3333H29.1382C28.4924 23.3333 27.9846 23.1563 27.6174 22.8021C27.2476 22.4479 26.8986 21.7813 26.5653 20.8021L21.3361 4.96875C21.3153 4.8099 21.2241 4.72917 21.0653 4.72917H20.9403C20.7788 4.72917 20.6903 4.8099 20.6695 4.96875L15.3674 20.8021C15.034 21.7813 14.6825 22.4479 14.3153 22.8021C13.9533 23.1563 13.4507 23.3333 12.8049 23.3333H9.00279C8.24498 23.3333 7.66425 23.1667 7.2632 22.8333C6.86737 22.5 6.5132 21.8229 6.2007 20.8021L0.065288 0.770833C0.002788 0.549479 -0.0154413 0.364583 0.0132047 0.21875C0.0470587 0.0729167 0.153829 0 0.336121 0Z" fill="#0E3A78"/>
</svg>
