<svg width="60" height="60" viewBox="0 0 60 60" fill="none" xmlns="http://www.w3.org/2000/svg">
<rect width="60" height="60" rx="30" fill="#673AB7"/>
<path d="M19.176 42.32C17.7893 42.32 16.52 42.1493 15.368 41.808C14.2373 41.4667 13.224 40.9653 12.328 40.304C11.4533 39.6427 10.664 38.8427 9.96 37.904L12.968 34.48C14.0133 35.9307 15.048 36.9227 16.072 37.456C17.1173 37.968 18.248 38.224 19.464 38.224C20.1253 38.224 20.712 38.1387 21.224 37.968C21.7573 37.776 22.1733 37.5093 22.472 37.168C22.7707 36.8267 22.92 36.4213 22.92 35.952C22.92 35.6107 22.8453 35.3013 22.696 35.024C22.5467 34.7253 22.3333 34.4693 22.056 34.256C21.7787 34.0213 21.448 33.8187 21.064 33.648C20.68 33.456 20.2533 33.296 19.784 33.168C19.3147 33.0187 18.8027 32.9013 18.248 32.816C17.0533 32.5387 16.008 32.208 15.112 31.824C14.216 31.4187 13.4693 30.928 12.872 30.352C12.2747 29.7547 11.8267 29.0827 11.528 28.336C11.2507 27.5893 11.112 26.7467 11.112 25.808C11.112 24.848 11.3253 23.9627 11.752 23.152C12.1787 22.32 12.7653 21.6053 13.512 21.008C14.28 20.4107 15.1547 19.952 16.136 19.632C17.1387 19.312 18.1947 19.152 19.304 19.152C20.6693 19.152 21.864 19.312 22.888 19.632C23.912 19.9307 24.7973 20.368 25.544 20.944C26.312 21.52 26.952 22.224 27.464 23.056L24.424 26C23.976 25.4027 23.4853 24.9013 22.952 24.496C22.44 24.0907 21.8747 23.792 21.256 23.6C20.6587 23.3867 20.04 23.28 19.4 23.28C18.696 23.28 18.088 23.376 17.576 23.568C17.064 23.7387 16.6587 23.9947 16.36 24.336C16.0827 24.6773 15.944 25.0933 15.944 25.584C15.944 25.968 16.04 26.3093 16.232 26.608C16.424 26.9067 16.7013 27.1733 17.064 27.408C17.4267 27.6213 17.864 27.8133 18.376 27.984C18.888 28.1547 19.4533 28.304 20.072 28.432C21.2453 28.6667 22.3013 28.976 23.24 29.36C24.1787 29.744 24.9787 30.2133 25.64 30.768C26.3227 31.3013 26.8453 31.9413 27.208 32.688C27.5707 33.4133 27.752 34.2347 27.752 35.152C27.752 36.6667 27.3893 37.9573 26.664 39.024C25.9387 40.0907 24.936 40.912 23.656 41.488C22.376 42.0427 20.8827 42.32 19.176 42.32ZM37.4115 42V23.92H30.8835V19.6H48.9315V23.92H42.2115V42H37.4115Z" fill="white"/>
</svg>
