<?xml version="1.0" encoding="UTF-8"?>
<svg version="1.1" xmlns="http://www.w3.org/2000/svg" width="860" height="296">
<path d="M0 0 C0.95963284 -0.00367669 1.91926568 -0.00735338 2.9079783 -0.01114148 C6.14432564 -0.02221088 9.38064092 -0.02602776 12.61700439 -0.02983093 C14.92953087 -0.03609343 17.24205634 -0.04274004 19.55458069 -0.04974365 C25.85478462 -0.06718035 32.15498095 -0.07771402 38.45520306 -0.08594918 C42.39280772 -0.09109673 46.33041001 -0.09717276 50.268013 -0.10346031 C61.17802035 -0.12033874 72.08802477 -0.13497029 82.99804306 -0.14220905 C85.83050284 -0.14411887 88.66296261 -0.14603921 91.49542236 -0.147995 C92.55138089 -0.14872061 92.55138089 -0.14872061 93.62867191 -0.14946087 C105.00992377 -0.15774527 116.39106997 -0.1830517 127.77227578 -0.21557567 C139.46803714 -0.24872451 151.16374501 -0.26666519 162.85955358 -0.26985329 C169.42168554 -0.27220029 175.98365085 -0.28111449 182.54573822 -0.30631447 C188.72797282 -0.32966993 194.90993197 -0.33379822 201.09219933 -0.32355309 C203.35358537 -0.32305933 205.6149853 -0.32933201 207.87632942 -0.34310913 C228.45218329 -0.46138365 244.02723466 2.21720927 259.53985596 16.80732727 C272.08763249 29.48206275 277.28721375 44.28076216 277.22198486 61.83076477 C276.87680519 78.14604641 270.12803522 91.89405761 258.75469971 103.42451477 C252.3522221 109.43870195 245.48128068 113.07171467 237.32501221 116.22138977 C236.55861923 116.517995 235.79222626 116.81460022 235.00260925 117.12019348 C223.27838401 121.58418477 211.34796923 125.47926471 199.45480728 129.46423721 C193.18468518 131.56737256 186.91922622 133.68440116 180.65313721 135.79951477 C179.9635322 136.03215467 179.27392719 136.26479458 178.56342506 136.50448418 C166.7375785 140.49488965 154.94303685 144.56958472 143.16876221 148.70967102 C126.90974212 154.42309881 110.60065937 159.98208978 94.27404785 165.49901962 C76.48228123 171.51207871 58.69202156 177.52937418 40.94854736 183.68379211 C39.11993948 184.31752536 37.290691 184.94941371 35.46075439 185.57929993 C32.96173625 186.44017664 30.46531704 187.30819 27.96954346 188.17842102 C27.25772415 188.42233582 26.54590485 188.66625061 25.81251526 188.91755676 C21.56753819 190.40948809 17.59936246 192.18810671 13.61399841 194.27888489 C11.85626221 195.14717102 11.85626221 195.14717102 8.85626221 196.14717102 C7.70605696 198.39460858 7.70605696 198.39460858 6.85626221 201.14717102 C6.5135025 202.05617157 6.1707428 202.96517212 5.81759644 203.90171814 C4.7868345 207.38155812 4.57906841 210.2630314 4.53741455 213.88691711 C4.52736893 214.53152893 4.5173233 215.17614075 4.50697327 215.84028625 C4.47632176 217.9503854 4.45915716 220.06035876 4.44219971 222.17060852 C4.42347347 223.64178028 4.40389898 225.11294147 4.3835144 226.58409119 C4.33234072 230.44074753 4.29263643 234.29743864 4.25537109 238.1542511 C4.21523845 242.09598791 4.16418851 246.03758195 4.11407471 249.97920227 C4.01749043 257.70176032 3.9330302 265.42438785 3.85626221 273.14717102 C28.37017825 273.0631166 52.88402946 272.96792678 77.39785099 272.85964394 C88.78119133 272.80961814 100.16452482 272.7631744 111.5479126 272.72529602 C121.47487125 272.69225469 131.40177519 272.65235723 141.3286733 272.60438097 C146.58014156 272.57923619 151.8315741 272.55742004 157.08308601 272.54382706 C162.03657884 272.53089681 166.98994838 272.50872688 171.94337273 272.47978783 C173.75118543 272.47079699 175.55901794 272.46504197 177.36685181 272.46295738 C200.85021983 272.43105936 221.60819342 269.86231161 239.54376221 253.08467102 C253.17900304 238.86506273 258.353381 221.28653729 258.05938721 201.93623352 C257.54902983 185.95955793 249.9062397 170.88111171 238.66094971 159.70576477 C233.49886614 154.99662168 227.99171293 151.26825085 221.85626221 147.95967102 C217.7359121 145.47029283 217.7359121 145.47029283 216.85626221 142.14717102 C216.38045912 138.42004682 216.58262808 136.63971246 218.41876221 133.33467102 C220.80941656 131.18921198 222.43849798 130.05964158 225.68438721 129.83076477 C235.46113539 131.25507521 243.78525551 138.78214439 250.85626221 145.14717102 C251.51497314 145.73498352 252.17368408 146.32279602 252.85235596 146.92842102 C267.24787277 160.52240572 276.33666928 181.21669806 277.09454346 200.94795227 C277.62598866 227.04096258 270.31659867 248.00478642 252.23126221 267.27217102 C233.18628432 285.67353982 209.96255819 290.77631497 184.36700439 290.66474915 C182.2529299 290.67018128 180.13885919 290.67731001 178.02479553 290.68598938 C172.33341108 290.70408242 166.64231957 290.69721717 160.9509306 290.68447304 C154.98042242 290.67428822 149.00993795 290.68375237 143.03942871 290.6900177 C133.02992274 290.69727143 123.0205353 290.68775919 113.01104736 290.6686554 C101.43637054 290.64681963 89.86197484 290.65399574 78.28730464 290.67596102 C68.33283731 290.69409486 58.37845468 290.69668535 48.42397618 290.68620634 C42.48502437 290.67996951 36.54620497 290.67914257 30.60726166 290.69235229 C25.03547612 290.70388323 19.46405522 290.69593554 13.89230919 290.67277527 C11.84603418 290.6674765 9.79972858 290.66902181 7.75346565 290.67782593 C4.96584135 290.688717 2.17939446 290.6750968 -0.6081543 290.65510559 C-1.8291372 290.66848992 -1.8291372 290.66848992 -3.07478642 290.68214464 C-6.67856918 290.63182382 -8.71789929 290.47577255 -11.61471176 288.24042511 C-14.39259956 284.43746501 -14.29772354 281.40921905 -14.30487061 276.84272766 C-14.30983551 276.08957275 -14.31480042 275.33641785 -14.31991577 274.56044006 C-14.33456138 272.05939323 -14.34134678 269.55841002 -14.34686279 267.05732727 C-14.35261654 265.31533812 -14.35837425 263.57334899 -14.36413574 261.83135986 C-14.37465545 258.17026983 -14.38049036 254.50920179 -14.38397217 250.84809875 C-14.38942952 246.18125474 -14.41339377 241.51470655 -14.44194412 236.84795475 C-14.46068041 233.24373565 -14.46578213 229.63958585 -14.46730804 226.03532219 C-14.47031528 224.31671486 -14.4782778 222.59810818 -14.49149323 220.87954903 C-14.59631189 206.18819748 -13.4918334 194.30688703 -3.17498779 182.98701477 C5.32679745 174.74705987 16.75805236 171.6995649 27.76641846 168.02998352 C28.87471008 167.65639206 29.98300171 167.2828006 31.12487793 166.89788818 C33.49264446 166.10000545 35.8610174 165.30392034 38.22994995 164.50950623 C44.55131004 162.38913771 50.86781783 160.2544136 57.18438721 158.11982727 C58.13517623 157.79874024 58.13517623 157.79874024 59.10517311 157.47116661 C70.48684623 153.62668153 81.83505085 149.69292316 93.16876221 145.70967102 C110.18981171 139.73218102 127.26543071 133.92156892 144.35626221 128.14717102 C167.08235045 120.46830162 189.76982085 112.68802397 212.39459229 104.71528625 C215.46149475 103.63492846 218.53199441 102.56563307 221.6050415 101.50288391 C222.37528656 101.23499054 223.14553162 100.96709717 223.93911743 100.69108582 C225.38655947 100.18770883 226.83499406 99.68717219 228.28463745 99.19017029 C239.21187155 95.37605707 247.74414953 89.60421118 253.42657471 79.29951477 C258.48398622 68.56335262 259.75729536 57.28664444 256.23126221 45.77217102 C252.32518948 35.51022385 244.48620042 26.63532015 234.54376221 21.77217102 C222.43844332 17.24333266 209.56717921 17.84122342 196.84942627 17.82832336 C194.73930482 17.81901209 192.62918702 17.80884165 190.51907349 17.79788208 C184.82162639 17.77070325 179.12420386 17.75546875 173.42670918 17.74245405 C167.46095798 17.72677025 161.49525654 17.69999687 155.52954102 17.67442322 C144.24643227 17.62772811 132.96331406 17.59093924 121.68015838 17.55775034 C108.82882408 17.51946333 95.97753988 17.47007047 83.12624788 17.41976619 C56.7029565 17.31658423 30.27963291 17.22727932 3.85626221 17.14717102 C3.86087117 17.88469951 3.86548014 18.62222799 3.87022877 19.38210583 C3.98063989 37.32597602 4.06338558 55.26977845 4.11532307 73.21391582 C4.14110715 81.89158004 4.17626141 90.56901755 4.23345947 99.24653625 C4.2832884 106.8096867 4.31555174 114.37267297 4.32670468 121.935983 C4.33322439 125.94096469 4.34855114 129.94547667 4.38491249 133.95030785 C4.41886435 137.72032167 4.42931711 141.48967257 4.42180061 145.25982475 C4.42317556 146.64294793 4.43311382 148.02609339 4.45228958 149.40908432 C4.60732114 161.16755337 4.60732114 161.16755337 1.53953552 164.47366333 C-2.01516146 166.69066176 -4.02340493 166.80936737 -8.14373779 166.14717102 C-10.897028 164.35154697 -12.6700124 163.0946218 -14.14373779 160.14717102 C-14.24419762 158.13136342 -14.27885395 156.11217435 -14.28417969 154.09387207 C-14.28988983 152.80256882 -14.29559998 151.51126556 -14.30148315 150.18083191 C-14.30272858 148.74147043 -14.30385366 147.30210885 -14.30487061 145.86274719 C-14.30949776 144.35334145 -14.31452228 142.84393689 -14.31991577 141.33453369 C-14.33305237 137.22700983 -14.33948727 133.11950233 -14.34392643 129.01196074 C-14.34685534 126.44666495 -14.35095982 123.88137364 -14.3554306 121.31608009 C-14.36910933 113.29262092 -14.37877394 105.26917199 -14.38263249 97.24570197 C-14.38711325 87.97881472 -14.40466034 78.71207497 -14.43363309 69.44523257 C-14.45524073 62.2859346 -14.4653363 55.12667816 -14.46667361 47.96734792 C-14.46772237 43.68979529 -14.47364509 39.41238124 -14.49149323 35.1348629 C-14.50795794 31.11048314 -14.51013728 27.08634637 -14.50135422 23.06194496 C-14.50058296 21.58532181 -14.50493829 20.10868568 -14.51481247 18.63209534 C-14.52750777 16.61524346 -14.51987226 14.59829422 -14.51123047 12.5814209 C-14.51269703 11.45297854 -14.51416359 10.32453619 -14.51567459 9.16189861 C-14.09654407 5.76464311 -13.17096426 3.88091075 -11.14373779 1.14717102 C-7.71449068 -0.56745253 -3.77402562 -0.00076732 0 0 Z " fill="#226CB1" transform="translate(41.14373779296875,2.8528289794921875)"/>
<path d="M0 0 C66.3 0 66.3 0 76.69921875 9.5625 C82.72530336 15.86581368 84.15558703 22.50539423 84.375 31.0625 C84.19837792 38.18881693 83.38996872 43.15787503 78.6875 48.75 C75.88881537 51.0930848 73.08807551 53.06097585 70 55 C71.59721796 56.06481197 73.20479036 57.11824715 74.8671875 58.078125 C81.71788519 62.07658669 86.21866362 66.65256393 88.49609375 74.3828125 C90.12027124 82.818463 89.9506477 92.23666373 86 100 C79.50401288 109.29343085 72.63906797 113.18398849 61.76675415 115.56671143 C56.28076629 116.42584662 50.75420169 116.2414723 45.21484375 116.1953125 C43.48868835 116.19229126 43.48868835 116.19229126 41.72766113 116.18920898 C37.46423304 116.17881278 33.20086215 116.15089063 28.9375 116.125 C19.388125 116.08375 9.83875 116.0425 0 116 C0 77.72 0 39.44 0 0 Z M22 17 C22 27.56 22 38.12 22 49 C40.52341859 50.33870912 40.52341859 50.33870912 57.625 44.8125 C61.60446863 40.09997136 62.22311879 35.88228065 61.875 29.875 C61.29281978 25.51526403 60.4175243 22.96785005 57 20 C50.20328894 15.99738495 43.25644465 16.66219474 35.5625 16.8125 C31.086875 16.874375 26.61125 16.93625 22 17 Z M22 64 C22 75.88 22 87.76 22 100 C27.878125 100.061875 27.878125 100.061875 33.875 100.125 C35.08913574 100.14320801 36.30327148 100.16141602 37.55419922 100.18017578 C50.59067186 100.38278821 50.59067186 100.38278821 62 95 C66.06002686 89.43923714 67.03923501 83.74967066 66 77 C64.65687209 72.37455357 62.76617987 69.12433854 58.625 66.5625 C53.23898865 64.24094339 48.33049173 63.87461671 42.5078125 63.90234375 C41.4264502 63.90484131 40.34508789 63.90733887 39.23095703 63.90991211 C37.87599121 63.91901611 36.52102539 63.92812012 35.125 63.9375 C28.628125 63.9684375 28.628125 63.9684375 22 64 Z " fill="#000000" transform="translate(382,140)"/>
<path d="M0 0 C6.93 0 13.86 0 21 0 C21.33 23.76 21.66 47.52 22 72 C25.96 67.05 25.96 67.05 30 62 C32.26688693 59.28898828 34.53558315 56.58443739 36.87402344 53.93481445 C39.20527606 51.26407808 41.10637762 48.81619701 42.89453125 45.7265625 C45.05594455 42.18639503 46.47129382 40.23557783 50 38 C57.57271428 36.66702269 65.38223856 37.32448227 73 38 C71.09063224 42.08842336 68.38838645 45.25027473 65.4375 48.625 C64.89955811 49.24673096 64.36161621 49.86846191 63.80737305 50.5090332 C60.68430992 54.10721395 57.51639205 57.66095451 54.3125 61.1875 C49.67263123 66.29475482 45.3232788 71.62400793 41 77 C46.04375883 83.81589031 51.27691678 90.47420891 56.52685547 97.13134766 C60.28002071 101.89215753 64.0238115 106.6603365 67.76611328 111.4296875 C68.92371921 112.90292085 70.08478577 114.37343311 71.24609375 115.84375 C71.88675781 116.6584375 72.52742187 117.473125 73.1875 118.3125 C73.73792969 119.00988281 74.28835938 119.70726562 74.85546875 120.42578125 C76 122 76 122 76 123 C55.1144909 125.18834926 55.1144909 125.18834926 48.96191406 121.91601562 C45.58905502 118.92487161 43.49459077 115.10838592 41.32226562 111.20458984 C38.79857508 106.9968857 35.62203913 103.26280522 32.5625 99.4375 C31.39489044 97.93794324 30.22940669 96.43672799 29.06640625 94.93359375 C26.73791125 91.93202704 24.37391141 88.96738926 22 86 C21.67 98.21 21.34 110.42 21 123 C14.07 123 7.14 123 0 123 C0 82.41 0 41.82 0 0 Z " fill="#000000" transform="translate(684,133)"/>
<path d="M0 0 C9.2843159 9.94891986 12.42435151 21.51416954 12.17578125 34.84375 C11.29452155 46.38274415 6.34349144 57.12228467 -2.07421875 65.1171875 C-12.7374471 73.95364765 -26.45764965 77.07243151 -40.07421875 76.1171875 C-53.63296239 74.04752351 -65.45923673 68.94197792 -73.86328125 57.73046875 C-81.08021858 46.40734293 -82.73463655 34.38410421 -80.60546875 21.21875 C-77.48199511 9.43135542 -69.85833071 -0.58604372 -59.375 -6.75390625 C-39.80456195 -16.35637925 -16.45685617 -14.93823856 0 0 Z M-53.76171875 14.0546875 C-58.74100071 21.87927344 -58.89955985 32.53038147 -57.13671875 41.3671875 C-54.93647947 48.95248731 -50.42023358 53.99375501 -43.82421875 58.1796875 C-36.34323671 60.04993301 -28.63822762 60.48112727 -21.8203125 56.44140625 C-16.36221433 52.30204321 -12.3038075 46.9561398 -11.07421875 40.1171875 C-10.17932597 28.88131146 -10.45094949 19.97034479 -17.51171875 10.7421875 C-22.61471824 5.51472461 -27.23357695 3.98859868 -34.38671875 3.8671875 C-43.38966765 3.97507903 -47.88958869 7.31261225 -53.76171875 14.0546875 Z " fill="#000000" transform="translate(658.07421875,181.8828125)"/>
<path d="M0 0 C7.49481019 6.86485847 11.88955188 16.72446459 12.3984375 26.86328125 C12.67203714 41.39412811 10.12793976 52.54298292 0.09765625 63.5703125 C-9.03944224 72.41000091 -21.14554877 76.23241711 -33.6875 76.72265625 C-47.05808777 76.36582738 -58.86921139 72.37548177 -68.75 63.28515625 C-77.33463631 54.14667244 -81.49653888 42.52084629 -81.1875 30.08203125 C-80.10308969 18.4923961 -75.66312513 7.34919463 -66.9375 -0.58984375 C-45.87992013 -15.94499276 -20.48706896 -16.81096183 0 0 Z M-51.25 11.59765625 C-57.67578375 19.91440634 -57.73487865 29.22142906 -56.9375 39.41015625 C-55.66286202 46.80305655 -52.14082304 52.16649601 -46.2265625 56.73046875 C-40.24783578 60.33788614 -33.71112238 60.22400825 -26.9375 59.41015625 C-20.15654712 57.64600591 -16.47989511 53.24400166 -12.9375 47.41015625 C-8.56439997 38.66395619 -9.03537866 28.29841282 -11.765625 19.12890625 C-14.37235706 13.08128787 -18.68839641 8.83747199 -24.1875 5.34765625 C-34.60385304 2.74356799 -43.68738112 3.64673664 -51.25 11.59765625 Z " fill="#000000" transform="translate(558.9375,181.58984375)"/>
<path d="M0 0 C4.74450901 4.02031148 7.54372219 6.82288555 9.17578125 12.9453125 C6.90971073 13.97806591 4.63896186 14.99664801 2.36328125 16.0078125 C1.72068359 16.30236328 1.07808594 16.59691406 0.41601562 16.90039062 C-4.484375 19.05859375 -4.484375 19.05859375 -7.82421875 17.9453125 C-8.69046875 16.7696875 -8.69046875 16.7696875 -9.57421875 15.5703125 C-13.0366931 11.53075909 -16.39567594 10.1996649 -21.546875 9.66015625 C-26.73947307 9.49941634 -30.65865414 9.47400866 -34.82421875 12.9453125 C-36.20564431 14.10909152 -36.20564431 14.10909152 -36.07421875 17.3203125 C-36.15621001 20.78380607 -36.15621001 20.78380607 -34.6640625 22.55078125 C-32.26253279 24.37104899 -30.03008188 25.0369485 -27.13671875 25.8828125 C-25.98429688 26.223125 -24.831875 26.5634375 -23.64453125 26.9140625 C-20.99454863 27.62939523 -18.36374255 28.29938767 -15.69140625 28.9140625 C-5.24204765 31.32048545 2.84416196 33.82033176 9.17578125 42.9453125 C12.15608172 49.04783251 12.05775053 56.10483865 10.55859375 62.6328125 C7.99968926 70.06042907 3.64023266 74.65370051 -3.3203125 78.2265625 C-16.06873964 83.65968213 -29.73954641 82.98883972 -42.82421875 78.9453125 C-50.26349217 75.59170387 -56.82918452 70.84131183 -59.82421875 62.9453125 C-59.82421875 61.9553125 -59.82421875 60.9653125 -59.82421875 59.9453125 C-54.54421875 57.9653125 -49.26421875 55.9853125 -43.82421875 53.9453125 C-42.81359375 55.2034375 -41.80296875 56.4615625 -40.76171875 57.7578125 C-36.45117828 62.59967207 -33.10192894 64.62123352 -26.703125 65.25390625 C-19.62916353 65.59694611 -19.62916353 65.59694611 -13.07421875 63.3203125 C-10.34456762 60.43901409 -9.82421875 58.8928088 -9.82421875 54.9453125 C-10.73588492 52.44616645 -11.38707633 51.22970563 -13.63452148 49.76757812 C-20.11614097 47.05127786 -26.60309923 45.39142801 -33.45117188 43.87890625 C-41.5174624 42.00071061 -48.39066391 39.46557831 -53.82421875 32.9453125 C-57.86569431 26.15720307 -57.55157482 19.64040907 -56.82421875 11.9453125 C-55.21395098 5.7055249 -51.18057904 1.3705372 -45.82421875 -2.0546875 C-31.81848822 -9.00206255 -13.01885673 -9.47153339 0 0 Z " fill="#000000" transform="translate(823.82421875,176.0546875)"/>
<path d="M0 0 C7.44701362 6.74832355 11.17381225 15.65927309 11.75 25.5625 C11.48231219 34.67963176 8.35974894 43.50453565 2.43359375 50.4375 C-6.2930898 58.65084923 -16.00257493 60.98889573 -27.64453125 60.6796875 C-37.4295347 59.93068822 -44.05545878 55.50282239 -50.625 48.375 C-57.50280287 39.5680573 -58.54999944 30.33083753 -57.625 19.375 C-55.75133163 9.71743415 -50.19346635 2.5884399 -42.42578125 -3.2890625 C-28.83989843 -11.63084334 -12.32851642 -9.48759742 0 0 Z M-32.625 12.375 C-35.79258157 15.36354435 -39.35983989 18.82538358 -39.828125 23.328125 C-39.93286406 28.4603387 -39.60621021 32.00255836 -36.625 36.375 C-32.66169808 40.27488909 -29.5361518 42.52459895 -23.9375 42.6875 C-18.60242049 42.61821325 -15.87402161 41.60425643 -11.625 38.375 C-8.14565129 34.43784224 -6.8258738 30.83614681 -6.4609375 25.68359375 C-6.83019774 20.48757463 -9.3618021 16.746472 -12.8125 13 C-19.44429636 9.16829543 -25.95954762 8.09006632 -32.625 12.375 Z " fill="#226CB1" transform="translate(146.625,61.625)"/>
<path d="M0 0 C7.96393361 8.40392994 11.14887763 17.31488488 11.0234375 28.7578125 C10.29883402 37.1979122 6.70243801 44.96843652 0.74609375 50.98828125 C-9.27345197 59.36826495 -18.3680227 60.84183337 -31.25390625 59.98828125 C-39.32367227 58.68287792 -45.84882663 54.05360507 -51.046875 47.84765625 C-57.1843853 39.1793701 -59.46039893 30.58914951 -58.25390625 19.98828125 C-55.87495474 9.90797826 -50.80072315 2.1771691 -42.328125 -3.76171875 C-29.17006833 -11.69124443 -11.53988461 -10.29989701 0 0 Z M-33.25390625 11.98828125 C-37.72405969 16.11831432 -40.00158292 19.50710181 -40.62890625 25.67578125 C-40.5541844 30.74752649 -38.44555093 34.16169399 -35.25390625 37.98828125 C-31.68245372 41.31056268 -29.01732117 42.24724246 -24.25390625 42.42578125 C-18.59114987 42.17070213 -14.95566906 40.78458643 -11.00390625 36.61328125 C-7.72847114 31.70012859 -6.63802592 27.9417911 -7.25390625 21.98828125 C-9.10641382 17.21181578 -11.8303703 13.64240282 -16.25390625 10.98828125 C-22.41087658 8.60569886 -27.58156908 8.35369546 -33.25390625 11.98828125 Z " fill="#236CB1" transform="translate(232.25390625,182.01171875)"/>
<path d="M0 0 C16.83 0 33.66 0 51 0 C51 6.7559897 50.4603127 8.74984968 46.7890625 13.75390625 C45.865443 15.07384449 44.94262977 16.39434716 44.02050781 17.71533203 C43.28241882 18.75648163 43.28241882 18.75648163 42.52941895 19.81866455 C39.87107462 23.61013106 37.33036271 27.47960366 34.7734375 31.33984375 C33.71276653 32.9319918 32.6515664 34.52378745 31.58984375 36.11523438 C31.06245605 36.90631592 30.53506836 37.69739746 29.99169922 38.51245117 C29.45818848 39.31271729 28.92467773 40.1129834 28.375 40.9375 C27.82376465 41.76435303 27.2725293 42.59120605 26.70458984 43.44311523 C23.46972656 48.29541016 20.23486328 53.14770508 17 58 C33.335 58.495 33.335 58.495 50 59 C50 62.63 50 66.26 50 70 C32.18 70 14.36 70 -4 70 C-4 62.1266944 -4 62.1266944 -0.88671875 57.84765625 C-0.22091797 56.9141333 0.44488281 55.98061035 1.13085938 55.01879883 C1.85080078 54.04322021 2.57074219 53.0676416 3.3125 52.0625 C4.78812243 50.00546798 6.26338144 47.94817521 7.73828125 45.890625 C8.46611816 44.88708984 9.19395508 43.88355469 9.94384766 42.84960938 C12.6895357 39.04437655 15.35341715 35.18700411 18 31.3125 C18.39485596 30.73959229 18.78971191 30.16668457 19.1965332 29.57641602 C23.19741765 23.7603385 27.08295269 17.87557097 31 12 C20.77 11.67 10.54 11.34 0 11 C0 7.37 0 3.74 0 0 Z " fill="#000000" transform="translate(386,40)"/>
<path d="M0 0 C4.29 0 8.58 0 13 0 C13.33 8.91 13.66 17.82 14 27 C16.64 25.35 19.28 23.7 22 22 C28.01684416 20.56741806 33.15277638 20.92049026 39 23 C43.31389415 25.71962892 46.09462595 28.97190931 47.57102966 33.90985107 C48.30154178 37.46925596 48.12069792 41.08452635 48.09765625 44.703125 C48.0962413 45.54091492 48.09482635 46.37870483 48.09336853 47.24188232 C48.08778197 49.91129157 48.07523194 52.5806162 48.0625 55.25 C48.05748326 57.06249879 48.05292066 58.87499889 48.04882812 60.6875 C48.03781694 65.12503248 48.02056155 69.56250191 48 74 C43.71 74 39.42 74 35 74 C34.98541748 72.99622314 34.97083496 71.99244629 34.95581055 70.95825195 C34.89767948 67.2212425 34.82044835 63.48482631 34.73754883 59.74829102 C34.7043689 58.13348037 34.67631542 56.51855569 34.65356445 54.90356445 C34.61988975 52.57714408 34.56757037 50.25176217 34.51171875 47.92578125 C34.50213387 46.84892815 34.50213387 46.84892815 34.49235535 45.75032043 C34.36471506 41.36330674 33.75856066 38.45736916 31 35 C26.99582465 33.22892244 24.58709226 32.91193616 20.25 33.5625 C16.37939004 35.27450056 15.73507931 36.20628719 14 40 C13.68192703 42.7135881 13.51243644 45.21196723 13.48828125 47.92578125 C13.47033005 48.67337204 13.45237885 49.42096283 13.43388367 50.19120789 C13.37996151 52.56491558 13.34594446 54.93842432 13.3125 57.3125 C13.27931079 58.92776195 13.24481965 60.54299771 13.20898438 62.15820312 C13.12424601 66.10532476 13.05734951 70.05238927 13 74 C8.71 74 4.42 74 0 74 C0 49.58 0 25.16 0 0 Z " fill="#000000" transform="translate(504,36)"/>
<path d="M0 0 C6.46706905 7.15586931 7.06266426 13.61992232 6.859375 22.98046875 C6.14629944 30.29345481 3.05483099 34.83135022 -2.4921875 39.5859375 C-10.50481512 45.55278785 -17.73540386 46.30213943 -27.4921875 45.5859375 C-35.10554627 44.39745336 -40.46899469 40.30233092 -45.4921875 34.5859375 C-50.15395759 27.95669992 -50.57256556 20.45453166 -49.4921875 12.5859375 C-47.24014314 5.12409466 -42.85643769 -0.03711649 -36.4921875 -4.4140625 C-24.52306743 -10.82609111 -9.94643735 -9.42568147 0 0 Z M-31.4921875 6.5859375 C-34.94155622 11.93840621 -36.11831504 17.39279979 -34.8671875 23.6484375 C-33.39676175 28.73078154 -30.72836225 32.19588293 -26.1796875 35.0234375 C-21.74447269 35.95173827 -17.64634098 35.85475757 -13.71484375 33.5390625 C-9.70201385 30.36019481 -7.75518059 27.67880885 -7.12109375 22.6328125 C-6.98995775 16.12229574 -7.24564277 11.49685227 -11.0078125 6.07421875 C-13.92732431 3.14702402 -16.79358623 2.28240419 -20.8671875 2.2109375 C-25.4434795 2.33136624 -28.0364578 3.45932491 -31.4921875 6.5859375 Z " fill="#000000" transform="translate(608.4921875,65.4140625)"/>
<path d="M0 0 C5.96129206 6.50189943 7.50561811 13.19529311 7.30078125 21.90625 C6.59011614 29.21594828 4.11312647 34.35001061 -1.1875 39.4375 C-8.53341072 45.35006228 -15.44320852 46.59155889 -24.78125 46.3515625 C-32.27733146 45.53281574 -38.8266238 42.53430942 -44 37 C-49.62154183 29.3057942 -50.21078709 21.28603656 -49 12 C-46.78694002 4.03721958 -41.9485113 -0.7715465 -35 -5 C-23.28500449 -10.2597939 -9.59356098 -8.59095523 0 0 Z M-33 9 C-35.54205439 15.07882571 -35.8532729 20.92603768 -33.8125 27.1875 C-32.23172525 30.94639294 -30.66922455 33.00585622 -27 35 C-22.5476503 36.18509863 -19.09473392 36.35114107 -14.6875 34.9375 C-10.64753058 32.02496391 -8.56331447 28.6899434 -7 24 C-6.38516973 17.89899199 -7.04838724 13.37615181 -10 8 C-12.74918186 4.73534654 -14.73369937 3.34697238 -19.015625 2.69140625 C-25.39081082 2.32360707 -29.05152946 3.90737039 -33 9 Z " fill="#000000" transform="translate(489,65)"/>
<path d="M0 0 C0.33 0 0.66 0 1 0 C2.26798493 4.68684801 1.91105063 9.03294937 1.5625 13.8125 C1.51029297 14.60076172 1.45808594 15.38902344 1.40429688 16.20117188 C1.27540731 18.13451529 1.13850506 20.06732164 1 22 C-1.30576694 18.35451867 -1.23699872 15.24789022 -1.1875 11 C-1.18105469 9.783125 -1.17460938 8.56625 -1.16796875 7.3125 C-1.03394204 4.66936856 -0.78329524 2.50654477 0 0 Z " fill="#31689D" transform="translate(90,77)"/>
<path d="M0 0 C0 0.99 0 1.98 0 3 C-0.99 3 -1.98 3 -3 3 C-3.66 4.32 -4.32 5.64 -5 7 C-8.62528568 7.20140476 -10.86501708 6.85776765 -14 5 C-14 4.34 -14 3.68 -14 3 C-12.60974609 2.80083984 -12.60974609 2.80083984 -11.19140625 2.59765625 C-9.99386719 2.42105469 -8.79632813 2.24445313 -7.5625 2.0625 C-6.36753906 1.88847656 -5.17257813 1.71445313 -3.94140625 1.53515625 C-1.12044324 1.31014787 -1.12044324 1.31014787 0 0 Z " fill="#32689C" transform="translate(132,101)"/>
<path d="M0 0 C1.32 0.66 2.64 1.32 4 2 C1.12921701 3.91385532 -1.33411656 4.96432952 -4.5625 6.125 C-5.53316406 6.47820312 -6.50382812 6.83140625 -7.50390625 7.1953125 C-10 8 -10 8 -12 8 C-11.67 6.68 -11.34 5.36 -11 4 C-10.37351563 3.87882813 -9.74703125 3.75765625 -9.1015625 3.6328125 C-8.28429688 3.46523437 -7.46703125 3.29765625 -6.625 3.125 C-5.81289063 2.96257812 -5.00078125 2.80015625 -4.1640625 2.6328125 C-1.81326077 2.13341068 -1.81326077 2.13341068 0 0 Z " fill="#2D69A2" transform="translate(66,188)"/>
<path d="M0 0 C-2.64738916 1.4606285 -3.89448334 2 -7 2 C-7 3.32 -7 4.64 -7 6 C-10.3 5.67 -13.6 5.34 -17 5 C-13.97546033 2.98364022 -11.36924652 1.96753498 -7.9375 0.8125 C-6.87402344 0.44769531 -5.81054688 0.08289063 -4.71484375 -0.29296875 C-2 -1 -2 -1 0 0 Z " fill="#2E6AA1" transform="translate(112,158)"/>
<path d="M0 0 C0.33 1.32 0.66 2.64 1 4 C2.32 4.33 3.64 4.66 5 5 C5 5.99 5 6.98 5 8 C0.33333333 5.66666667 -4.33333333 3.33333333 -9 1 C-5.92677456 0.08941469 -3.19902639 -0.08886184 0 0 Z " fill="#2B6BA1" transform="translate(276,20)"/>
<path d="M0 0 C0.66 1.32 1.32 2.64 2 4 C-1.3 4 -4.6 4 -8 4 C-8 3.34 -8 2.68 -8 2 C-4.91190305 0.23537317 -3.76687864 0 0 0 Z " fill="#2E6AA0" transform="translate(126,68)"/>
<path d="M0 0 C0.66 0.33 1.32 0.66 2 1 C2 1.66 2 2.32 2 3 C2.99 3.33 3.98 3.66 5 4 C2.03 4.66 -0.94 5.32 -4 6 C-2.68 4.02 -1.36 2.04 0 0 Z " fill="#2E6A9A" transform="translate(114,170)"/>
<path d="M0 0 C0 0.99 0 1.98 0 3 C-0.99 3 -1.98 3 -3 3 C-3.66 4.32 -4.32 5.64 -5 7 C-6.65 7 -8.3 7 -10 7 C-6.80331012 4.3513141 -3.60513403 2.06007659 0 0 Z " fill="#2D6AA7" transform="translate(132,101)"/>
<path d="M0 0 C2.64 0 5.28 0 8 0 C4.71536341 2.18975773 1.79303725 2.99806563 -2 4 C-2 3.34 -2 2.68 -2 2 C-1.34 2 -0.68 2 0 2 C0 1.34 0 0.68 0 0 Z " fill="#2765A6" transform="translate(102,176)"/>
<path d="M0 0 C0.33 0.99 0.66 1.98 1 3 C1.66 3.33 2.32 3.66 3 4 C1.1875 5.0625 1.1875 5.0625 -1 6 C-1.99 5.67 -2.98 5.34 -4 5 C-2.68 3.35 -1.36 1.7 0 0 Z " fill="#2A6BA3" transform="translate(267,282)"/>
<path d="M0 0 C1.32 0.66 2.64 1.32 4 2 C0.5647952 4.29013653 -0.985331 4.17842973 -5 4 C-3.35 2.68 -1.7 1.36 0 0 Z " fill="#2162A0" transform="translate(66,188)"/>
</svg>
